<svg width="25" height="26" viewBox="0 0 25 26" fill="none" xmlns="http://www.w3.org/2000/svg">
<g clip-path="url(#clip0_3695_4986)">
<path fill-rule="evenodd" clip-rule="evenodd" d="M18.5449 11.2988L12.4999 0L6.46342 11.2988L0.362549 8.22362V19.6851L12.5 26L24.6375 19.6851V8.22336L18.5449 11.2988ZM18.2166 12.3141L23.2733 9.76217L19.6887 15.8807L12.8843 11.2292V2.3321L18.2166 12.3141ZM6.79185 12.3139L12.1242 2.33961V11.2291L5.31142 15.8809L1.72629 9.76135L6.79185 12.3139ZM1.13113 18.7351V10.2419L4.67953 16.3095L1.13113 18.7351ZM12.1242 24.9415L1.48469 19.415L5.06698 16.9691L6.50415 19.4214L12.1242 15.6636V24.9415ZM23.524 19.4151L12.8843 24.9494V15.6636L18.5043 19.4214L19.9415 16.9691L23.524 19.4151ZM23.8689 10.2419V18.7351L20.3205 16.3095L23.8689 10.2419ZM19.3177 16.5322L18.2574 18.338L12.4999 14.4976L6.75166 18.3374L5.69869 16.5325L12.5085 11.8828L19.3177 16.5322Z" fill="#111111"/>
</g>
<defs>
<clipPath id="clip0_3695_4986">
<rect width="25" height="26" fill="white"/>
</clipPath>
</defs>
</svg>
