<svg width="25" height="26" viewBox="0 0 25 26" fill="none" xmlns="http://www.w3.org/2000/svg">
<g clip-path="url(#clip0_3717_4339)">
<path d="M2.85968 8.14879C2.81907 8.12442 2.80932 8.13336 2.83044 8.1756L6.74413 15.9201C6.74521 15.9221 6.74547 15.9244 6.74486 15.9265C6.74425 15.9286 6.74282 15.9304 6.74088 15.9315C6.73895 15.9326 6.73666 15.9328 6.73452 15.9322C6.73239 15.9316 6.73059 15.9302 6.72951 15.9283L1.02224 6.61434C1.00925 6.59268 0.990021 6.58185 0.964569 6.58185C0.438736 6.58077 0.127622 6.37038 0.0312278 5.95069C-0.296132 4.52103 2.06849 4.52753 1.61441 6.09772C1.60683 6.12317 1.6136 6.14402 1.63472 6.16026L7.08855 10.3371C7.09276 10.3404 7.09789 10.3424 7.10323 10.3426C7.10857 10.3429 7.11386 10.3415 7.1184 10.3387C7.12293 10.3359 7.12647 10.3317 7.12854 10.3268C7.13061 10.3218 7.13112 10.3164 7.12998 10.3112L6.25269 6.63709C6.24565 6.60676 6.22696 6.58889 6.19664 6.58348C4.68656 6.31785 5.76124 4.49991 6.65722 5.31059C6.96914 5.59273 6.99405 5.93498 6.73195 6.33735C6.71733 6.36009 6.71841 6.3823 6.7352 6.40396L9.60833 10.0537C9.61199 10.0585 9.6169 10.0621 9.62253 10.0643C9.62816 10.0665 9.63431 10.0671 9.64031 10.066C9.64632 10.0649 9.65195 10.0622 9.65662 10.0582C9.66129 10.0541 9.66481 10.0489 9.66681 10.0431L11.9746 2.7697C11.9827 2.74424 11.9751 2.72475 11.9518 2.71121C11.4531 2.41336 11.2757 2.02075 11.4198 1.53336C11.6659 0.702375 12.7844 0.530164 13.215 1.28074C13.5245 1.82254 13.3124 2.43665 12.7511 2.71365C12.7251 2.72664 12.7165 2.74695 12.7251 2.77457L14.8859 9.99436C14.8881 10.0014 14.8922 10.0077 14.8977 10.0126C14.9033 10.0175 14.91 10.0208 14.9173 10.0222C14.9246 10.0235 14.9321 10.0228 14.939 10.0202C14.9459 10.0176 14.952 10.0132 14.9566 10.0074L17.7939 6.39421C17.8118 6.37201 17.8118 6.3498 17.7939 6.3276C17.5673 6.03842 17.5616 5.68425 17.7809 5.3902C18.1928 4.83864 19.1164 5.1725 19.0685 5.88733C19.0408 6.29728 18.7931 6.53122 18.3252 6.58916C18.2976 6.59241 18.2805 6.60731 18.274 6.63384L17.3464 10.5362C17.3453 10.5404 17.3456 10.5449 17.3472 10.549C17.3488 10.5531 17.3516 10.5565 17.3552 10.559C17.3589 10.5614 17.3632 10.5626 17.3676 10.5624C17.372 10.5623 17.3762 10.5608 17.3797 10.5581L23.3314 5.99618C23.3526 5.97993 23.3599 5.95908 23.3534 5.93363C23.2277 5.43 23.3458 5.07232 23.7075 4.86057C24.5564 4.36425 25.4272 5.42431 24.7684 6.13671C24.5361 6.38852 24.2515 6.47652 23.9147 6.40071C23.8854 6.39421 23.863 6.40369 23.8473 6.42914L18.0401 15.8974C18.0393 15.8982 18.0383 15.8987 18.0372 15.8988C18.0361 15.8989 18.035 15.8987 18.0341 15.8981C18.0332 15.8976 18.0324 15.8967 18.032 15.8957C18.0317 15.8947 18.0316 15.8936 18.032 15.8925L21.927 8.1691C21.9286 8.16541 21.929 8.1613 21.9282 8.15735C21.9274 8.15339 21.9254 8.14978 21.9225 8.14702C21.9195 8.14426 21.9158 8.14247 21.9118 8.14192C21.9078 8.14136 21.9037 8.14206 21.9002 8.14392L16.1247 11.5426C16.1182 11.5464 16.1138 11.5448 16.1117 11.5377C16.1089 11.5302 16.1111 11.5237 16.1182 11.5182C16.4539 11.2718 16.7937 11.017 17.1376 10.7539C17.1518 10.743 17.1635 10.7291 17.1718 10.7132C17.1801 10.6974 17.1848 10.6799 17.1855 10.6621L17.3122 7.99608C17.3123 7.99117 17.3109 7.98637 17.3082 7.98225C17.3055 7.97813 17.3017 7.97488 17.2973 7.97289C17.2928 7.97091 17.2878 7.97028 17.283 7.97108C17.2781 7.97188 17.2736 7.97407 17.27 7.9774L15.002 10.1568C14.9891 10.1693 14.9797 10.185 14.975 10.2022C14.9703 10.2193 14.9704 10.2374 14.9752 10.2543C15.0505 10.5164 15.1298 10.7793 15.2132 11.043C15.2197 11.0636 15.2206 11.0828 15.2157 11.1007C15.2076 11.1327 15.1973 11.1335 15.1848 11.1032L12.3815 4.41381C12.3802 4.41045 12.3779 4.40757 12.375 4.40554C12.372 4.40351 12.3685 4.40242 12.3649 4.40242C12.3613 4.40242 12.3578 4.40351 12.3548 4.40554C12.3518 4.40757 12.3495 4.41045 12.3482 4.41381L9.33133 11.1917C9.32483 11.2063 9.31617 11.2074 9.30534 11.1949C9.29992 11.1879 9.29965 11.1773 9.30452 11.1633C9.40796 10.867 9.5011 10.5741 9.58396 10.2843C9.58887 10.267 9.58898 10.2485 9.58426 10.2311C9.57954 10.2136 9.57017 10.1978 9.55715 10.1852L7.26726 7.98958C7.26269 7.98518 7.2569 7.98225 7.25064 7.98118C7.24439 7.98011 7.23796 7.98094 7.23218 7.98357C7.2264 7.98619 7.22155 7.99049 7.21824 7.99591C7.21494 8.00133 7.21334 8.00761 7.21365 8.01395L7.32087 10.4054C7.32241 10.4415 7.33186 10.4769 7.34856 10.509C7.36526 10.5412 7.3888 10.5693 7.41754 10.5914L8.60432 11.5012C8.6119 11.5071 8.61433 11.5147 8.61163 11.5239C8.61108 11.5261 8.61027 11.5283 8.60919 11.5304C8.60926 11.5307 8.60901 11.5308 8.60846 11.5308C8.60791 11.5308 8.60708 11.5305 8.606 11.5301C8.60493 11.5298 8.60365 11.5292 8.60224 11.5286C8.60083 11.5279 8.59932 11.5272 8.59782 11.5264L2.85968 8.14879Z" fill="black"/>
<path d="M9.61564 15.99L6.01469 13.2005C6.00061 13.1897 6.00142 13.1802 6.01712 13.1721C6.02525 13.1683 6.0331 13.1699 6.04068 13.177C6.05043 13.1851 6.05666 13.1903 6.05936 13.1924C8.15403 14.4807 10.2465 15.7631 12.3369 17.0395C12.3704 17.0595 12.4038 17.0593 12.4368 17.0387L18.7257 13.1469C18.8188 13.0895 18.8226 13.0947 18.737 13.1624L15.1751 15.9884C15.1534 16.0052 15.148 16.026 15.1588 16.0509L19.0238 25.1569C19.0352 25.1834 19.0262 25.1967 18.997 25.1967H5.71007C5.69437 25.1967 5.68949 25.1894 5.69545 25.1748L9.63351 16.0599C9.64543 16.0317 9.63947 16.0084 9.61564 15.99ZM12.4392 18.1532C12.435 18.1567 12.4298 18.1586 12.4243 18.1588C12.4189 18.1589 12.4135 18.1572 12.4092 18.154L10.3256 16.5391C10.3227 16.5368 10.3192 16.5353 10.3156 16.5345C10.3119 16.5338 10.3081 16.5339 10.3045 16.5348C10.3009 16.5357 10.2976 16.5375 10.2947 16.5399C10.2919 16.5424 10.2897 16.5454 10.2882 16.5489L6.88386 24.4583C6.88222 24.462 6.88156 24.4661 6.88191 24.4702C6.88227 24.4743 6.88365 24.4782 6.88591 24.4816C6.88818 24.485 6.89126 24.4877 6.89487 24.4896C6.89849 24.4915 6.90252 24.4925 6.9066 24.4924L17.8784 24.4632C17.8824 24.4631 17.8864 24.4621 17.8899 24.4601C17.8934 24.4582 17.8964 24.4554 17.8985 24.452C17.9007 24.4486 17.902 24.4448 17.9023 24.4408C17.9026 24.4368 17.902 24.4327 17.9004 24.4291L14.4489 16.5968C14.4474 16.5934 14.4452 16.5903 14.4424 16.5879C14.4395 16.5854 14.4362 16.5837 14.4326 16.5827C14.429 16.5818 14.4252 16.5817 14.4215 16.5824C14.4179 16.5832 14.4145 16.5848 14.4115 16.5871L12.4392 18.1532Z" fill="black"/>
</g>
<defs>
<clipPath id="clip0_3717_4339">
<rect width="25" height="26" fill="white"/>
</clipPath>
</defs>
</svg>
