<svg width="25" height="26" viewBox="0 0 25 26" fill="none" xmlns="http://www.w3.org/2000/svg">
<g clip-path="url(#clip0_3718_3102)">
<path d="M13.201 5.03761C13.262 5.58669 13.4197 6.10655 13.6743 6.59717C14.0292 7.28076 14.6314 7.38298 15.3316 7.41706C15.3521 7.41789 15.3573 7.4093 15.3473 7.39129C15.1357 7.01231 14.9335 6.62696 14.7406 6.23523C14.5711 5.89115 14.4743 5.13111 15.0216 5.05174C15.2205 5.02265 15.4411 5.03013 15.6835 5.07418C16.3995 5.20425 16.8994 5.4756 17.1513 6.21611C17.5307 7.33395 17.5718 8.52658 17.5165 9.67683C17.5082 9.85011 17.3624 10.0728 17.1799 9.89624C16.7598 9.49024 16.4473 9.07802 16.151 8.57728C15.2027 6.97616 12.7381 7.86793 11.521 8.48835C11.2262 8.6385 11.0028 8.78948 10.8507 8.9413C10.3952 9.39619 10.2465 9.97117 10.4044 10.6663C10.4879 11.0332 11.2093 11.0145 11.4964 10.9966C12.5349 10.9322 13.5954 10.8624 14.6201 11.1288C15.039 11.2381 15.2912 11.5963 15.3224 12.0226C15.323 12.0306 15.3216 12.0386 15.3183 12.0459C15.3151 12.0532 15.3102 12.0596 15.3039 12.0646C15.2977 12.0696 15.2903 12.073 15.2824 12.0745C15.2746 12.076 15.2665 12.0756 15.2588 12.0733C15.1314 12.0345 15.0065 12.0071 14.884 11.991C13.9224 11.8655 13.0046 11.8509 12.1306 11.947C11.6984 11.9948 11.0846 12.1232 10.6018 12.316C10.5186 12.3492 10.4941 12.4033 10.5249 12.4851C10.5301 12.4995 10.5403 12.5053 10.5552 12.5026C12.4672 12.1705 14.5707 12.0467 16.36 12.9468C16.3778 12.9558 16.3919 12.9707 16.3997 12.9889C16.4075 13.0072 16.4087 13.0276 16.4028 13.0465C16.3859 13.1006 16.3562 13.1439 16.3135 13.1766C16.3016 13.1855 16.2888 13.1874 16.2753 13.1824C14.158 12.4049 11.7944 12.6339 9.71954 13.4937C9.70735 13.4986 9.70236 13.5075 9.70458 13.5203C9.73159 13.674 9.89532 13.6989 10.032 13.7052C10.9363 13.747 11.8409 13.7832 12.746 13.8136C13.3361 13.834 14.7444 14.0638 15.0157 14.6954C15.113 14.9219 15.1047 15.217 14.8981 15.3844C14.8159 15.4509 14.6862 15.4812 14.5773 15.5286C14.4115 15.6009 14.2619 15.6637 14.1435 15.7983C14.1227 15.8217 14.1112 15.8519 14.1111 15.8832C14.1111 15.9145 14.1224 15.9448 14.1431 15.9683C14.2927 16.1382 15.3478 16.2961 15.2069 16.5849C15.201 16.5967 15.1911 16.6059 15.179 16.6107C15.0211 16.6718 14.7643 16.7611 14.8092 16.9722C14.852 17.1742 15.1475 17.2261 15.2559 17.4028C15.4799 17.7659 15.3989 18.356 15.2343 18.7167C15.0685 19.0807 14.8075 19.1713 14.3999 19.3155C12.6687 19.9293 10.7983 19.9509 9.00396 19.5458C8.61957 19.4589 8.17161 19.3259 7.86992 19.1119C7.13439 18.5904 7.00682 17.5686 6.97524 16.7113C6.92426 15.312 6.87287 13.9124 6.82107 12.5125C6.81733 12.4116 6.78201 12.311 6.77619 12.2038C6.72106 11.1691 6.66496 10.1345 6.60789 9.10004C6.60249 9.00446 6.57548 8.93465 6.50317 8.86567C6.38266 8.75098 5.90561 8.38945 5.73856 8.47297C5.72498 8.4799 5.71806 8.49084 5.71778 8.5058C5.70116 9.63139 5.68578 10.7568 5.67165 11.8822C5.66293 12.5778 5.63592 13.2772 5.56486 13.9695C5.55738 14.0426 5.58134 14.1008 5.63675 14.144C5.84674 14.308 6.07391 14.4426 6.31825 14.5479C6.32989 14.5529 6.33584 14.5618 6.33612 14.5745L6.35648 15.3815C6.35656 15.3847 6.3559 15.3879 6.35456 15.3908C6.35322 15.3938 6.35124 15.3963 6.34876 15.3984C6.34627 15.4004 6.34336 15.4019 6.34024 15.4026C6.33711 15.4034 6.33385 15.4034 6.33072 15.4027C5.70947 15.2697 4.74165 14.8729 4.66145 14.139C4.65147 14.0476 4.66366 13.9225 4.69802 13.7638C4.77531 13.4061 4.82656 13.0451 4.85177 12.6808C4.99971 10.5374 5.01467 8.39568 4.98433 6.24811C4.97796 5.79267 4.97934 5.33722 4.98849 4.88178C4.99763 4.43797 5.25195 4.39849 5.63758 4.41304C6.01157 4.42758 6.29166 4.63037 6.58545 4.83399C6.58782 4.83562 6.59058 4.83658 6.59345 4.83679C6.59632 4.837 6.59919 4.83644 6.60177 4.83517C6.60435 4.8339 6.60655 4.83197 6.60813 4.82957C6.60972 4.82717 6.61064 4.82439 6.6108 4.82152C6.67313 3.54163 6.77577 2.43418 7.17179 1.27355C7.29369 0.916451 7.41032 0.666982 7.52169 0.52514C7.90441 0.038114 8.53605 -0.0171545 9.13818 0.0036231C9.7604 0.0255088 10.3828 0.0414386 11.0053 0.0514119C12.0286 0.0677569 13.0511 0.105295 14.0729 0.164026C14.4577 0.18605 14.921 0.277471 15.2397 0.434134C15.6769 0.648974 15.8202 0.967287 16.0513 1.45307C16.1419 1.64394 16.226 1.83787 16.3035 2.03484C16.3042 2.03647 16.3043 2.03829 16.3038 2.03998C16.3032 2.04167 16.3021 2.04312 16.3006 2.04407C16.2991 2.04501 16.2974 2.0454 16.2956 2.04516C16.2939 2.04491 16.2922 2.04405 16.2911 2.04273C16.1764 1.92472 16.0527 1.81598 15.92 1.71653C15.7637 1.59976 15.4612 1.55612 15.2696 1.52537C13.9124 1.30762 12.5262 1.1788 11.1511 1.18462C10.347 1.18836 9.80639 1.15221 9.2055 1.2964C8.68232 1.42232 8.37564 1.80047 8.17078 2.28001C7.817 3.10945 7.44633 3.93141 7.05876 4.74589C7.05267 4.75891 7.05682 4.76487 7.07123 4.76376L10.1692 4.53105C10.1874 4.52967 10.1971 4.5197 10.1983 4.50113C10.266 3.21625 11.5854 2.78948 12.655 2.94614C13.1615 3.02011 13.3174 3.41197 13.4404 3.86077C13.7957 5.15771 13.8763 6.3761 15.0681 7.23754C15.0694 7.23852 15.0703 7.23998 15.0707 7.24162C15.071 7.24326 15.0708 7.24496 15.07 7.24638C15.0692 7.2478 15.0679 7.24884 15.0664 7.24928C15.0649 7.24972 15.0633 7.24953 15.0619 7.24876C14.7556 7.10996 14.3791 6.95081 14.1651 6.69857C13.757 6.21819 13.472 5.60525 13.2152 5.03387C13.2021 5.00506 13.1974 5.00631 13.201 5.03761ZM10.4148 5.60401C10.431 5.75277 10.4571 5.89282 10.5033 6.04657C10.6229 6.44522 10.723 6.84831 10.8033 7.25582C10.8052 7.26533 10.8038 7.27521 10.7992 7.28383C10.7947 7.29246 10.7873 7.29929 10.7784 7.3032C10.4172 7.45986 9.98549 7.59159 9.73907 7.92361C9.44984 8.31299 9.51218 8.69363 9.63352 9.18232C9.71358 9.50617 9.82038 9.81008 9.95391 10.094C9.98604 10.1625 9.99768 10.1591 9.98881 10.0841C9.94144 9.67849 9.80597 8.57894 10.1222 8.27309C10.4837 7.92361 11.053 7.64146 11.5023 7.41664C11.5057 7.41491 11.5088 7.41248 11.5112 7.40951C11.5137 7.40654 11.5155 7.40308 11.5165 7.39937C11.5176 7.39566 11.5179 7.39177 11.5173 7.38794C11.5168 7.38412 11.5155 7.38045 11.5135 7.37716C11.1572 6.7929 10.8213 6.19437 10.5058 5.58157C10.4997 5.56965 10.4926 5.56176 10.4846 5.55788C10.4735 5.55262 10.4618 5.55137 10.4497 5.55414C10.4388 5.5568 10.4292 5.56332 10.4228 5.5725C10.4164 5.58167 10.4135 5.59287 10.4148 5.60401Z" fill="#111111"/>
<path d="M17.7808 22.3017C17.1486 21.7274 16.7354 21.0226 16.5412 20.1873C16.5376 20.1718 16.543 20.1606 16.5574 20.1537L17.0108 19.9314C17.0136 19.93 17.0167 19.9292 17.0199 19.929C17.0231 19.9289 17.0262 19.9294 17.0292 19.9306C17.0322 19.9318 17.0349 19.9336 17.0372 19.9358C17.0394 19.9381 17.0412 19.9408 17.0424 19.9438C17.2049 20.3677 17.4301 20.9648 17.7181 21.3991C18.0551 21.9073 18.4133 22.0523 19.0483 22.3137C19.4984 22.4993 19.9488 22.6848 20.3992 22.8701C20.7646 23.0203 21.0122 23.1429 21.1418 23.2379C21.6858 23.6352 21.8561 24.1733 21.8545 24.8286C21.8536 25.2107 21.8536 25.5905 21.8545 25.9681C21.8545 25.9765 21.8512 25.9845 21.8452 25.9904C21.8393 25.9963 21.8313 25.9997 21.8229 25.9997H20.4719C20.4685 25.9997 20.4651 25.9987 20.4621 25.9968C20.4592 25.9949 20.4569 25.9922 20.4555 25.989C20.4541 25.9859 20.4536 25.9824 20.4542 25.9789C20.4548 25.9755 20.4563 25.9723 20.4586 25.9697C20.9278 25.4457 21.1468 24.962 20.9586 24.2464C20.7965 23.6298 20.2234 23.3347 19.6695 23.1249C19.3013 22.9853 18.8248 22.8153 18.24 22.615C18.1178 22.5732 17.9648 22.4687 17.7808 22.3017Z" fill="#111111"/>
<path d="M8.12462 22.8594C7.83581 22.8635 7.65795 22.9537 7.33839 23.1037C6.75662 23.3774 6.17762 23.6575 5.60139 23.9439C5.30136 24.0931 5.12226 24.2847 4.99552 24.5789C4.79439 25.0474 4.59146 25.5149 4.38673 25.9814C4.38147 25.9936 4.37205 25.9997 4.35848 25.9997H3.1646C3.1477 25.9997 3.14202 25.9918 3.14756 25.976C3.24979 25.6771 3.35423 25.3793 3.46089 25.0826C3.74138 24.303 3.88932 23.8579 4.58121 23.4698C5.35386 23.0365 6.14673 22.6699 6.95983 22.3698C6.97193 22.3652 6.98301 22.3583 6.99242 22.3494C7.00184 22.3404 7.0094 22.3298 7.01468 22.3179L8.02488 20.0149C8.02829 20.007 8.03449 20.0006 8.0423 19.9969C8.0501 19.9932 8.05899 19.9925 8.06727 19.995C8.82981 20.2144 9.4735 20.2792 10.4322 20.3802C10.5006 20.3874 10.567 20.4079 10.6312 20.4417C11.4935 20.8984 12.3495 21.0085 13.314 20.8859C13.3306 20.8837 13.3384 20.891 13.3373 20.9079C13.2895 21.6862 13.4133 22.337 14.04 22.8552C14.5542 23.2802 15.1436 23.5393 15.8082 23.6327C16.6322 23.749 17.6815 23.7333 18.0696 24.652C18.0818 24.6809 18.0847 24.711 18.0783 24.7426C17.9778 25.2442 17.467 25.4873 17.0415 25.6232C16.1435 25.9103 15.1537 25.9984 14.2158 25.9988C11.1665 26.0002 8.11714 26.0004 5.06782 25.9993C5.05369 25.9993 5.04885 25.9925 5.05328 25.9789C5.27795 25.3176 5.43475 24.8785 5.52368 24.6616C5.67411 24.2942 5.93508 24.1272 6.32112 23.941C6.8245 23.6986 7.32413 23.4485 7.82002 23.1905C7.96297 23.1162 8.06644 23.0306 8.15038 22.9071C8.15347 22.9025 8.15524 22.8971 8.1555 22.8915C8.15576 22.886 8.1545 22.8804 8.15185 22.8755C8.1492 22.8706 8.14527 22.8665 8.14047 22.8637C8.13568 22.8608 8.13019 22.8593 8.12462 22.8594Z" fill="#111111"/>
</g>
<defs>
<clipPath id="clip0_3718_3102">
<rect width="25" height="26" fill="white"/>
</clipPath>
</defs>
</svg>
