<svg width="25" height="26" viewBox="0 0 25 26" fill="none" xmlns="http://www.w3.org/2000/svg">
<path d="M17.0758 18.1919C18.3815 14.167 19.6872 10.1329 21.1237 6.15156C21.3731 5.46009 21.6584 4.60034 21.9796 3.57231C22.4454 2.07157 24.7539 1.96142 24.9926 3.90045C25.0729 4.55444 24.4808 5.82571 24.2537 6.42463C22.369 11.4332 20.5668 16.4709 18.8473 21.5376C18.549 22.4187 18.7349 23.2861 17.4659 23.5179C15.8941 23.8047 15.8252 22.8134 15.4168 21.712C14.4163 19.0149 13.4601 16.2965 12.5484 13.5566C12.53 13.5015 12.5117 13.5015 12.4933 13.5566C11.6397 16.1756 10.7539 18.7839 9.83603 21.3815C9.51477 22.2879 9.79702 23.4032 8.39725 23.5684C6.7703 23.7634 6.73817 22.5495 6.32742 21.4435C4.2683 15.9071 2.21377 10.3692 0.163836 4.82981C-0.719626 2.43643 2.22678 1.56903 2.88536 3.38644C4.64463 8.22215 6.33583 13.067 7.95896 17.9211C7.96415 17.9363 7.97391 17.9496 7.98691 17.959C7.99991 17.9685 8.01551 17.9737 8.03158 17.9739C8.04765 17.9742 8.06341 17.9695 8.0767 17.9604C8.08998 17.9514 8.10016 17.9384 8.10582 17.9234L10.7333 10.5046C10.7593 10.4312 10.7585 10.3585 10.731 10.2866C10.0701 8.54723 9.45281 6.75507 8.69326 5.05928C8.35594 4.3112 8.22514 3.02158 9.17745 2.63836C10.0204 2.29874 10.6415 2.52439 11.0407 3.3153C11.6282 4.47948 12.0978 5.69109 12.4497 6.95012C12.4757 7.04496 12.5078 7.04649 12.5461 6.95471C13.0157 5.81041 13.3982 4.64088 13.6934 3.4461C14.1547 1.57591 17.6105 2.27809 16.2497 5.24056C15.5338 6.80096 14.84 8.3713 14.1684 9.95159C14.1363 10.0266 14.134 10.1023 14.1615 10.1788L17.0368 18.1942C17.0506 18.2309 17.0636 18.2301 17.0758 18.1919Z" fill="#111111"/>
</svg>
