<svg width="25" height="26" viewBox="0 0 25 26" fill="none" xmlns="http://www.w3.org/2000/svg">
<g clip-path="url(#clip0_3720_3123)">
<path d="M14.1524 0.67831C14.1452 0.773821 14.1651 0.971712 14.2122 1.27198C14.434 2.68404 13.3762 4.68977 12.5402 5.79665C12.5225 5.8202 12.5045 5.8202 12.4862 5.79665C11.4598 4.44935 10.4481 2.37592 10.925 0.645928C11.3417 0.35547 11.7911 0.149075 12.2732 0.0267429C12.8443 -0.118486 13.7069 0.360377 14.1524 0.67831Z" fill="#111111"/>
<path d="M10.9249 0.645935C10.448 2.37592 11.4597 4.44936 12.4861 5.79665C12.5044 5.8202 12.5224 5.8202 12.5401 5.79665C13.3761 4.68977 14.4339 2.68405 14.2122 1.27199C14.1651 0.971719 14.1451 0.773828 14.1523 0.678317C15.8878 1.93435 17.1161 3.54135 17.837 5.49933C18.2697 6.67293 18.5622 9.08393 16.4769 8.81212C14.9079 8.43923 13.4988 7.17731 12.5499 5.89969C12.5456 5.89381 12.54 5.88902 12.5335 5.88573C12.527 5.88243 12.5199 5.88071 12.5126 5.88071C12.5053 5.88071 12.4981 5.88243 12.4917 5.88573C12.4852 5.88902 12.4796 5.89381 12.4753 5.89969C11.5176 7.18025 10.1516 8.4196 8.55608 8.81408C6.04892 9.08393 6.93894 5.88791 7.50709 4.69762C8.29408 3.04908 9.43334 1.69852 10.9249 0.645935Z" fill="#292929"/>
<path d="M16.477 8.81208C14.8422 12.6489 10.1723 12.641 8.55615 8.81404C10.1517 8.41957 11.5176 7.18022 12.4754 5.89965C12.4796 5.89378 12.4853 5.88899 12.4917 5.88569C12.4982 5.8824 12.5054 5.88068 12.5127 5.88068C12.5199 5.88068 12.5271 5.8824 12.5336 5.88569C12.5401 5.88899 12.5457 5.89378 12.5499 5.89965C13.4988 7.17728 14.908 8.4392 16.477 8.81208Z" fill="#7B7B7B"/>
<path d="M18.1059 13.0974C17.9665 13.2485 18.0009 13.5605 17.9714 13.7205C17.2957 17.3597 15.4715 20.2715 12.4989 22.4558C10.5363 23.8414 8.33924 24.6529 5.95278 24.8815C5.63746 24.9116 5.31626 24.9459 4.98916 24.9845C4.78506 24.6378 4.70721 24.2414 4.75562 23.7952C5.05491 21.0516 5.39737 18.3099 5.71727 15.5672C5.79512 14.9045 5.89881 14.4286 6.02834 14.1395C6.34431 13.4369 6.87943 12.9672 7.6337 12.7304C7.90846 12.644 8.29606 12.6012 8.79651 12.6018C11.4204 12.6057 14.045 12.6064 16.6703 12.6038C17.189 12.6031 17.6676 12.7677 18.1059 13.0974Z" fill="#111111"/>
<path d="M18.1059 13.0974C18.7483 13.5651 19.1117 14.1532 19.1961 14.8617C19.5154 17.5517 19.8336 20.242 20.1509 22.9327C20.2343 23.6363 20.3933 24.2672 20.0302 24.9482C17.2551 24.8599 14.7447 24.0291 12.4989 22.4558C15.4715 20.2715 17.2957 17.3597 17.9715 13.7205C18.0009 13.5605 17.9666 13.2485 18.1059 13.0974Z" fill="#292929"/>
<path d="M12.4988 22.4557C14.7447 24.0291 17.2551 24.8599 20.0301 24.9482C19.6121 25.6429 18.9641 25.9913 18.0862 25.9932C14.5163 26.0011 10.9452 26.0021 7.37266 25.9962C6.33152 25.9942 5.5779 25.9334 4.98914 24.9845C5.31623 24.9459 5.63743 24.9116 5.95275 24.8815C8.33921 24.6528 10.5363 23.8413 12.4988 22.4557Z" fill="#7B7B7B"/>
</g>
<defs>
<clipPath id="clip0_3720_3123">
<rect width="25" height="26" fill="white"/>
</clipPath>
</defs>
</svg>
