<svg width="25" height="26" viewBox="0 0 25 26" fill="none" xmlns="http://www.w3.org/2000/svg">
<g clip-path="url(#clip0_3723_8353)">
<path d="M14.3946 9.12408L13.482 10.0367V12.5437H11.2061V9.12408H9.84289L8.93022 10.0367V10.3718H0C0.323475 11.0072 0.94732 11.4577 1.67514 11.5501H8.93022V11.8274H1.79067C2.11414 12.4628 2.73799 12.9134 3.46581 13.0058H8.93022V13.2484H3.55823C3.8817 13.8838 4.50555 14.3343 5.23337 14.4268H8.93022V14.704H5.23337C5.55684 15.3394 6.18069 15.79 6.9085 15.8824H8.91867V16.8759H10.2819L11.1945 15.9633V14.8196H13.4704V16.8759H14.8336L15.7463 15.9633V9.12408H14.3946ZM15.5384 15.7322H14.9324H14.6257V13.6758H10.975V15.7322H10.0624V9.34359L10.975 9.34359V12.7632H14.6257V12.5566V11.839V9.34359H15.5384V10.3602V11.5617V11.839V13.0173V13.1277V14.6847V14.7156V15.7322Z" fill="#151515"/>
<path fill-rule="evenodd" clip-rule="evenodd" d="M15.7116 10.3602V9.1934H14.36V12.5668H11.2061V9.1934H9.85444V15.9402H11.2061V13.9185H14.36V15.9402H15.7116V15.9055H17.7449C17.9182 15.9055 18.0799 15.8824 18.2417 15.8362C18.542 15.7553 18.7962 15.6398 19.0157 15.4896C19.1659 15.3856 19.3045 15.2817 19.4201 15.143C19.4604 15.1094 19.4929 15.068 19.5243 15.0279C19.547 14.999 19.5692 14.9708 19.5933 14.9466C19.5984 14.9391 19.6034 14.931 19.6085 14.9228C19.627 14.893 19.6471 14.8608 19.6742 14.8427C19.6795 14.8214 19.6922 14.805 19.7055 14.7878C19.721 14.7678 19.7373 14.7467 19.7435 14.7156H15.7116V14.4383H19.7666C20.1825 14.3806 20.506 14.2188 20.7833 14.0224C20.9104 13.9184 21.049 13.8029 21.153 13.6758C21.2338 13.5834 21.3147 13.4794 21.3725 13.3639C21.384 13.3524 21.3956 13.3293 21.4071 13.3062C21.4187 13.2946 21.4187 13.283 21.4187 13.283C21.4187 13.2786 21.422 13.2742 21.4249 13.2705C21.4296 13.2644 21.433 13.2599 21.4187 13.2599H15.7116V13.0173H21.5573C21.9732 12.948 22.2967 12.8094 22.5624 12.6014C22.5855 12.5899 22.597 12.5783 22.6086 12.5668C22.6317 12.5552 22.6548 12.5321 22.6664 12.5206C22.6664 12.5206 22.6779 12.509 22.6895 12.509L22.7588 12.4397C22.8165 12.3819 22.8743 12.3242 22.9321 12.2549C22.9653 12.215 22.9947 12.1751 23.0225 12.1374C23.043 12.1096 23.0626 12.083 23.0823 12.0585C23.0938 12.0354 23.1054 12.018 23.1169 12.0007C23.1285 11.9834 23.14 11.966 23.1516 11.9429C23.1631 11.9314 23.1747 11.9083 23.1862 11.8852C23.1862 11.8794 23.1891 11.8765 23.192 11.8736C23.1949 11.8707 23.1978 11.8678 23.1978 11.8621C23.1978 11.8577 23.2012 11.8532 23.204 11.8495C23.2087 11.8434 23.2121 11.839 23.1978 11.839H15.7116V11.5617H23.3018C23.7177 11.4924 24.0527 11.3537 24.3299 11.1458C24.4686 11.0418 24.5957 10.9379 24.7112 10.7992C24.7689 10.7415 24.8267 10.6721 24.8729 10.6028C24.8845 10.5913 24.8845 10.5913 24.8845 10.5797C24.8845 10.5726 24.8889 10.5699 24.895 10.5661C24.8988 10.5638 24.9032 10.561 24.9076 10.5566V10.5451L24.9191 10.5335C24.9307 10.522 24.9307 10.5104 24.9307 10.4989C24.9368 10.4896 24.9438 10.4804 24.9509 10.471C24.9706 10.4449 24.9915 10.4172 25 10.3833C22.3159 10.3627 18.6262 10.3605 15.7116 10.3602ZM14.6257 12.7632V12.5566V11.839V9.34359H15.5384V10.3602V11.5617V11.839V13.0173V13.1277V14.6847L15.5268 14.7156H15.5384V15.7322H14.9324H14.6257V13.6758H10.975V15.7322H10.0739V9.34359H10.975V12.7632H14.6257Z" fill="#151515"/>
</g>
<defs>
<clipPath id="clip0_3723_8353">
<rect width="25" height="26" fill="white"/>
</clipPath>
</defs>
</svg>
