<svg xmlns="http://www.w3.org/2000/svg" fill="none" viewBox="0 0 24 24"><path fill="#fff" fill-rule="evenodd" d="M16.352 7.106a5.892 5.892 0 0 0-4.14-1.624c-2.824 0-5.2 1.882-6.071 4.447a6.561 6.561 0 0 0 0 4.141l-3.577 2.777a10.815 10.815 0 0 1 0-9.695A10.79 10.79 0 0 1 12.211 1.2c2.683-.024 5.27.964 7.224 2.8l-3.083 3.106ZM22.4 10.07c.118.706.188 1.46.188 2.189 0 3.27-1.176 6.047-3.223 7.953l-.014-.01c-1.787 1.638-4.229 2.598-7.139 2.598a10.79 10.79 0 0 1-9.647-5.953l3.577-2.753c.87 2.541 3.247 4.447 6.07 4.447 1.459 0 2.706-.376 3.67-1.035a4.909 4.909 0 0 0 2.165-3.27h-5.835V10.07h10.188Z" clip-rule="evenodd"/></svg>