<svg width="25" height="26" viewBox="0 0 25 26" fill="none" xmlns="http://www.w3.org/2000/svg">
<g clip-path="url(#clip0_3721_8293)">
<path d="M5.84147 17.5034V19.3895H2.0175C0.617258 17.9587 -0.00012207 15.6334 -0.00012207 13.7798C-0.00012207 11.5034 0.737698 9.35704 2.27331 8.00732H5.84147V9.95878H3.19154C2.64981 10.6254 2.19816 12.3814 2.19816 13.7311C2.19816 15.0808 2.64981 16.8366 3.19179 17.5034H5.84147Z" fill="black"/>
<path d="M11.7555 8.00732V9.95878H8.93618L8.89201 10.0564L11.2414 14.8043C11.5938 15.5033 11.9611 16.3651 11.9611 16.9831C11.9611 18.1866 11.506 18.9829 10.9771 19.3895H7.08601V17.5034H10.1255L10.1696 17.4056L7.52653 12.1538C7.18868 11.4872 6.95398 10.8368 6.95398 10.3002C6.95398 9.5195 7.21829 8.47904 8.23136 8.00732H11.7555Z" fill="black"/>
<path d="M17.5682 8.00734V9.9588H14.5923L14.5457 10.0564L17.0256 14.8043C17.3976 15.5034 17.7852 16.3651 17.7852 16.9831C17.7852 18.1866 17.3049 18.9829 16.7466 19.3895H12.6393V17.5035H15.8476L15.8943 17.4056L13.1043 12.1538C12.7477 11.4872 12.5 10.8368 12.5 10.3002C12.5 9.51952 12.779 8.47906 13.8486 8.00734H17.5682Z" fill="black"/>
<path d="M19.1936 6.38129H21.4994V17.4252H24.9999V19.6187H19.1936V6.38129Z" fill="black"/>
</g>
<defs>
<clipPath id="clip0_3721_8293">
<rect width="25" height="26" fill="white"/>
</clipPath>
</defs>
</svg>
