<svg width="25" height="26" viewBox="0 0 25 26" fill="none" xmlns="http://www.w3.org/2000/svg">
<g clip-path="url(#clip0_3715_4196)">
<path d="M13.9699 20.1633C15.8406 20.1633 17.7114 19.3674 19.0476 18.3061L19.8494 17.5102L24.1253 21.7552L23.0563 22.5511C20.6511 24.6735 17.4442 26 13.9699 26C6.48693 26 0.874756 20.4286 0.874756 13C0.874756 5.57144 6.48693 0 13.9699 0C17.4442 0 20.6511 1.32653 23.0563 3.44898L24.1253 4.24491L19.8494 8.22447L19.0476 7.42859C17.7114 6.10205 15.8406 5.57143 13.9699 5.57143C9.69399 5.57143 6.75417 8.48977 6.75417 12.7347C6.75417 16.9796 9.69399 20.1633 13.9699 20.1633Z" fill="#111111"/>
<path d="M17.9785 12.9993C17.9785 15.3436 16.0641 17.2441 13.7025 17.2441C11.3409 17.2441 9.42657 15.3436 9.42657 12.9993C9.42657 10.6549 11.3409 8.75433 13.7025 8.75433C16.0641 8.75433 17.9785 10.6549 17.9785 12.9993Z" fill="#111111"/>
</g>
<defs>
<clipPath id="clip0_3715_4196">
<rect width="25" height="26" fill="white"/>
</clipPath>
</defs>
</svg>
