<svg width="25" height="26" viewBox="0 0 25 26" fill="none" xmlns="http://www.w3.org/2000/svg">
<g clip-path="url(#clip0_3721_8335)">
<path fill-rule="evenodd" clip-rule="evenodd" d="M12.5004 0.5C5.60819 0.5 0 6.1075 0 13.0004C0 19.8918 5.60819 25.5 12.5004 25.5C19.3932 25.5 25 19.8925 25 13.0004C25 6.1075 19.3932 0.5 12.5004 0.5ZM12.5004 24.3401C6.24772 24.3401 1.16065 19.253 1.16065 13.0004C1.16065 6.74703 6.24772 1.65996 12.5004 1.65996C18.753 1.65996 23.8401 6.74703 23.8401 13.0004C23.8401 19.253 18.753 24.3393 12.5004 24.3393V24.3401ZM12.5226 13.3438L8.74808 8.98892H8.69094V16.8808H9.83908V11.8655L12.4662 15.0151H12.5226L15.1609 11.8662V16.8808H16.3098V8.98892H16.2526L12.5226 13.3438Z" fill="#151515"/>
</g>
<defs>
<clipPath id="clip0_3721_8335">
<rect width="25" height="26" fill="white"/>
</clipPath>
</defs>
</svg>
