<svg width="35" height="10" viewBox="0 0 35 10" fill="none" xmlns="http://www.w3.org/2000/svg">
<path d="M29.4865 1.49284C29.6167 1.49284 29.7382 1.52043 29.8405 1.58479C30.0735 1.70432 30.2223 1.95324 30.2223 2.22974V4.30317H32.2536C32.6633 4.30317 32.9893 4.62564 32.9893 5.03087C32.9893 5.4361 32.6633 5.75857 32.2536 5.75857H30.2223V7.73086C30.2223 8.13608 29.8962 8.45856 29.4865 8.45856C29.4029 8.45856 23.8309 8.45856 23.8309 8.45856C23.4212 8.45856 23.0952 8.13608 23.0952 7.73086V4.99409C23.1138 4.60725 23.4398 4.29397 23.8309 4.29397H28.7501V2.94825H23.0759L20.3832 7.89702C20.3368 8.11835 20.1967 8.31144 19.9828 8.41324C19.8806 8.45921 19.7683 8.4868 19.6661 8.4868C19.4144 8.4868 19.1627 8.35807 19.0326 8.12754C19.0047 8.09076 18.9861 8.04479 18.9675 7.99882L16.8433 3.87035L14.6911 7.90687C14.5982 8.11901 14.458 8.3121 14.2436 8.42309C14.1413 8.46907 14.0291 8.49665 13.9268 8.49665C13.6751 8.49665 13.4235 8.36792 13.2933 8.13739C13.2654 8.10062 13.2468 8.05464 13.2283 8.00867L10.6285 2.96795H6.28641V4.31367H9.79917C10.2089 4.31367 10.5349 4.63615 10.5349 5.04138C10.5349 5.4466 10.2089 5.76908 9.79917 5.76908H6.28641V7.77814C6.28641 8.18337 5.96037 8.50584 5.55066 8.50584C5.14095 8.50584 4.81491 8.18337 4.81491 7.77814V5.76908H2.74644C2.33673 5.76908 2.01068 5.4466 2.01068 5.04138C2.01068 4.63615 2.33673 4.31367 2.74644 4.31367H4.77772V2.24025C4.77772 1.96375 4.93643 1.72403 5.15954 1.5953C5.26181 1.54013 5.38332 1.50335 5.51348 1.50335H11.0197C11.1405 1.50335 11.2527 1.53093 11.355 1.5861C11.5137 1.65047 11.6439 1.77066 11.7182 1.93616L13.8983 6.16577L16.0783 2.12925C16.1899 1.90792 16.2463 1.70564 16.488 1.59464C16.5903 1.54867 16.7025 1.52108 16.8048 1.52108C16.9913 1.52108 17.168 1.58545 17.2988 1.71483C17.4289 1.81597 17.4947 1.89019 17.5877 2.06489L19.6468 6.16577L21.9577 1.92697C22.0135 1.82582 22.0971 1.74241 22.2 1.67805C22.3302 1.57691 22.4889 1.51189 22.6755 1.51189H29.4865M24.5395 6.99408H28.7508V5.75935H24.5395V6.99408ZM29.4865 0H22.6755C22.1815 0 21.6974 0.166163 21.3056 0.461054C21.0353 0.645606 20.8115 0.893866 20.6535 1.17037L20.6349 1.20715L19.694 2.93971C19.694 2.93971 18.6036 0.820308 18.2776 0.562197C17.8679 0.212138 17.3459 0.0183905 16.8054 0.0183905C16.4701 0.0183905 16.1347 0.0919486 15.8273 0.239722C15.2403 0.516223 14.9142 1.03245 14.644 1.63142L13.9361 2.93971L13.0695 1.26231C12.8458 0.810456 12.4639 0.442008 11.9978 0.230527C11.6903 0.0827538 11.355 0.00919576 11.0197 0.00919576H5.51348C5.14095 0.00919576 4.76843 0.101143 4.44172 0.276501C3.71526 0.663339 3.2677 1.41928 3.2677 2.2304V2.81098H2.74577C1.50668 2.81098 0.5 3.80599 0.5 5.03218C0.5 6.25837 1.50602 7.25338 2.74577 7.25338H3.2677V7.76961C3.2677 8.99514 4.27372 9.9908 5.51348 9.9908C6.75323 9.9908 7.75925 8.9958 7.75925 7.76961V7.25338H9.75335C10.1817 7.25338 10.592 7.13385 10.9367 6.92171L11.8218 8.63589C11.8683 8.73703 11.9148 8.82963 11.9712 8.92158C12.3809 9.58492 13.1081 9.9908 13.8903 9.9908C14.2256 9.9908 14.561 9.91725 14.8684 9.76947C15.4182 9.51136 15.893 9.06935 16.1354 8.50716L16.7782 7.09707L17.5797 8.64508C17.6262 8.74622 17.6726 8.83883 17.7284 8.93078C18.1381 9.59411 18.8653 10 19.6475 10C19.9828 10 20.3182 9.92644 20.6256 9.77867C21.1383 9.52975 21.5387 9.09694 21.7439 8.58072C22.0792 9.39183 22.89 9.96322 23.8309 9.96322H29.4865C30.7256 9.96322 31.7323 9.00499 31.7323 7.77946V7.26323H32.2542C33.4933 7.26323 34.5 6.26823 34.5 5.04203C34.5 3.8165 33.494 2.82083 32.2542 2.82083H31.7323V2.24025C31.7323 1.41994 31.2854 0.673847 30.5583 0.286352C30.2322 0.091948 29.859 0 29.4865 0Z" fill="black"/>
</svg>
