<svg width="25" height="26" viewBox="0 0 25 26" fill="none" xmlns="http://www.w3.org/2000/svg">
<path d="M14.5577 20.5315C14.4993 20.5511 6.45521 8.9297 6.45521 8.82623C6.45521 8.80263 6.86977 8.82623 7.37638 8.82623H8.29755L11.3934 13.3566C13.0961 15.8483 14.5112 17.8738 14.5381 17.8576C14.5649 17.8414 16.5154 15.0296 18.8724 11.6092L23.1059 5.46576H25C24.4397 6.3237 14.603 20.5164 14.5577 20.5315Z" fill="#111111"/>
<path d="M19.2719 7.84935C18.3822 9.13884 16.964 11.204 16.1203 12.4385C15.3436 13.5751 14.6745 14.5221 14.5479 14.6664L13.6597 13.2938C13.7588 13.14 14.963 11.3784 16.3938 9.2942L19.0219 5.46576H20.9137C20.8083 5.62078 20.1034 6.64421 19.2719 7.84935Z" fill="#111111"/>
<path d="M4.35987 9.06068C5.74087 11.0594 7.89252 14.1753 9.14134 15.985L11.408 19.2697L10.4571 20.5305C10.2412 20.2752 1.00815 6.97934 0.0893377 5.59993L0 5.46578H1.87595L4.35987 9.06068Z" fill="#111111"/>
</svg>
