<svg width="25" height="26" viewBox="0 0 25 26" fill="none" xmlns="http://www.w3.org/2000/svg">
<g clip-path="url(#clip0_3723_8350)">
<path d="M16.6592 10.4486L11.8939 2.22892C11.885 2.21349 11.8803 2.19599 11.8803 2.17817C11.8802 2.16035 11.8849 2.14283 11.8937 2.12736C11.9025 2.11188 11.9153 2.099 11.9307 2.08999C11.946 2.08097 11.9635 2.07615 11.9813 2.07599H13.7012C13.7405 2.07598 13.779 2.08629 13.8131 2.10588C13.8472 2.12547 13.8756 2.15366 13.8955 2.18766L24.9894 21.3751C24.9964 21.3874 25 21.4014 24.9999 21.4156C24.9999 21.4297 24.9961 21.4437 24.989 21.4559C24.9819 21.4682 24.9716 21.4784 24.9594 21.4855C24.9471 21.4926 24.9332 21.4964 24.919 21.4965H16.0766C16.0646 21.4963 16.0528 21.4931 16.0424 21.487C16.0321 21.4809 16.0235 21.4722 16.0175 21.4618C16.0115 21.4514 16.0083 21.4396 16.0082 21.4276C16.0082 21.4156 16.0112 21.4038 16.0171 21.3933L16.9165 19.8469C16.9352 19.8154 16.9631 19.7992 17.0003 19.7984C18.4754 19.7951 19.9526 19.7951 21.4318 19.7984C21.5143 19.7984 21.6297 19.7595 21.6952 19.7304C21.729 19.7158 21.7594 19.6942 21.7843 19.6671C21.8091 19.6399 21.828 19.6078 21.8396 19.5728C21.8512 19.5378 21.8552 19.5008 21.8514 19.4642C21.8477 19.4275 21.8362 19.3921 21.8178 19.3602L18.0223 12.8155C17.9906 12.7609 17.9451 12.7155 17.8904 12.684C17.8356 12.6524 17.7735 12.6359 17.7104 12.6359H10.9969C10.984 12.6359 10.9713 12.633 10.9596 12.6273C10.948 12.6216 10.9378 12.6134 10.9299 12.6032C10.9219 12.593 10.9164 12.5812 10.9137 12.5685C10.911 12.5559 10.9113 12.5428 10.9144 12.5303C11.7543 11.047 10.9144 12.5303 11.7543 11.047C11.8013 10.9726 11.8688 10.9354 11.957 10.9354L16.3801 10.9341C16.4367 10.9342 16.4923 10.9192 16.5414 10.8909C16.5904 10.8625 16.6311 10.8216 16.6594 10.7724C16.6877 10.7233 16.7025 10.6674 16.7025 10.6106C16.7025 10.5538 16.6876 10.4979 16.6592 10.4486Z" fill="black"/>
<path d="M6.23414 15.078C6.04479 15.0027 5.89387 15.0622 5.7814 15.2564C4.3548 17.7261 2.93751 20.201 1.52953 22.6811C1.39601 22.9166 1.20545 23.1618 1.08771 23.4154C1.02298 23.553 0.951769 23.5562 0.874087 23.4252L0.0390067 22.016C0.0136838 21.9733 0.000216021 21.9247 2.57714e-06 21.8752C-0.000210867 21.8256 0.0128377 21.777 0.0377929 21.7344L11.1851 2.47533C11.1909 2.46497 11.1994 2.45634 11.2096 2.45033C11.2199 2.44433 11.2315 2.44116 11.2434 2.44116C11.2553 2.44116 11.2669 2.44433 11.2772 2.45033C11.2874 2.45634 11.2959 2.46497 11.3017 2.47533L15.7405 10.144C15.7513 10.1628 15.757 10.1841 15.757 10.2058C15.7571 10.2275 15.7514 10.2488 15.7406 10.2676C15.7297 10.2864 15.7142 10.3021 15.6954 10.313C15.6766 10.3239 15.6553 10.3296 15.6336 10.3297H13.978C13.9393 10.3297 13.9012 10.3196 13.8675 10.3004C13.8339 10.2813 13.8059 10.2537 13.7863 10.2205L11.5092 6.33757C11.4811 6.28984 11.441 6.25031 11.3928 6.22292C11.3447 6.19554 11.2902 6.18126 11.2348 6.1815C11.1794 6.18175 11.1251 6.19651 11.0772 6.22432C11.0293 6.25213 10.9895 6.29202 10.9618 6.34L7.21366 12.8568C7.19043 12.897 7.17821 12.9426 7.17821 12.9891C7.17821 13.0355 7.19043 13.0812 7.21366 13.1214L10.6414 19.075C10.6859 19.1527 10.6636 19.1911 10.5746 19.1903L8.84133 19.1757C8.79472 19.1754 8.74897 19.1629 8.70855 19.1395C8.66813 19.1161 8.63442 19.0826 8.61072 19.0422L6.36765 15.1933C6.33777 15.1414 6.29076 15.1008 6.23414 15.078Z" fill="black"/>
<path d="M11.2738 7.21273L12.2436 8.85376C12.2474 8.85999 12.2493 8.86713 12.2493 8.8744C12.2493 8.88167 12.2474 8.8888 12.2436 8.89503L9.89252 12.9648C9.88923 12.9708 9.8875 12.9775 9.8875 12.9843C9.8875 12.991 9.88923 12.9977 9.89252 13.0037L12.2388 17.0795C12.2425 17.0858 12.2445 17.0929 12.2445 17.1002C12.2445 17.1074 12.2425 17.1146 12.2388 17.1208L11.2726 18.7716C11.2691 18.7776 11.264 18.7826 11.2579 18.7861C11.2519 18.7896 11.245 18.7914 11.238 18.7914C11.231 18.7914 11.2241 18.7896 11.2181 18.7861C11.212 18.7826 11.2069 18.7776 11.2034 18.7716L7.88493 12.9988C7.88182 12.9928 7.8803 12.986 7.88051 12.9792C7.88073 12.9724 7.88266 12.9658 7.88614 12.96L11.2046 7.21273C11.2081 7.20669 11.2132 7.20168 11.2193 7.19819C11.2253 7.19471 11.2322 7.19287 11.2392 7.19287C11.2462 7.19287 11.2531 7.19471 11.2592 7.19819C11.2652 7.20168 11.2703 7.20669 11.2738 7.21273Z" fill="black"/>
<path d="M12.2557 10.1768L12.5167 9.67668C12.5256 9.65976 12.5389 9.64553 12.5552 9.63545C12.5715 9.62537 12.5902 9.61979 12.6093 9.6193C12.6284 9.6188 12.6474 9.62341 12.6642 9.63264C12.6809 9.64187 12.695 9.65539 12.7048 9.67182L12.9925 10.1561C13.0022 10.1723 13.0076 10.1908 13.008 10.2097C13.0084 10.2286 13.0038 10.2473 12.9947 10.2639C12.9856 10.2805 12.9723 10.2944 12.9562 10.3043C12.94 10.3141 12.9215 10.3195 12.9026 10.32H12.3585C12.3397 10.3204 12.3585 10.32 12.3002 10.3216C12.2837 10.3127 12.2698 10.2996 12.2599 10.2837C12.2499 10.2677 12.2443 10.2495 12.2436 10.2308C12.2429 10.212 12.247 10.1934 12.2557 10.1768Z" fill="black"/>
<path d="M17.4895 13.3471C17.5199 13.3475 17.5497 13.3558 17.5761 13.3711C17.6024 13.3864 17.6245 13.4082 17.6401 13.4345L20.8529 18.9718C20.8663 18.9944 20.8734 19.0203 20.8735 19.0466C20.8736 19.0729 20.8666 19.0988 20.8534 19.1215C20.8402 19.1443 20.8211 19.1631 20.7982 19.176C20.7753 19.1889 20.7494 19.1955 20.7231 19.1951L18.9934 19.1781C18.9753 19.1781 18.9575 19.1733 18.942 19.1644C18.9264 19.1554 18.9136 19.1426 18.9048 19.1272L16.6508 15.186C16.6299 15.1489 16.5993 15.1179 16.5622 15.0964C16.5251 15.0749 16.4828 15.0635 16.4396 15.0634H11.877C11.8578 15.0634 11.839 15.0584 11.8224 15.0488C11.8057 15.0392 11.7919 15.0254 11.7824 15.0088L10.8854 13.4479C10.876 13.4318 10.8714 13.4133 10.8722 13.3947C10.873 13.3761 10.8791 13.3696 10.8898 13.3544C10.9328 13.3544 10.9328 13.3544 10.9328 13.3544C10.9869 13.3544 10.9328 13.3544 10.9869 13.3544C11.644 13.3544 11.415 13.3577 11.644 13.3544C13.5949 13.3269 15.5434 13.3245 17.4895 13.3471Z" fill="black"/>
<path d="M12.3531 15.6703L12.8322 15.6703C12.8525 15.6699 12.8726 15.6747 12.8905 15.6842C12.9085 15.6936 12.9238 15.7075 12.9349 15.7245C12.9461 15.7414 12.9528 15.761 12.9543 15.7812C12.9559 15.8014 12.9523 15.8218 12.9439 15.8402L12.7082 16.286C12.6994 16.3056 12.6855 16.3226 12.6679 16.335C12.6503 16.3474 12.6297 16.3549 12.6083 16.3566C12.5868 16.3584 12.5653 16.3543 12.5459 16.3449C12.5265 16.3354 12.5101 16.321 12.4982 16.303L12.2548 15.8572C12.2427 15.8393 12.2358 15.8184 12.2347 15.7968C12.2335 15.7752 12.2382 15.7537 12.2483 15.7345C12.2584 15.7154 12.2734 15.6993 12.2919 15.688C12.3103 15.6767 12.3314 15.6706 12.3531 15.6703Z" fill="black"/>
<path d="M13.8616 15.6703H15.7017C15.7145 15.6703 15.727 15.6737 15.7381 15.6801C15.7492 15.6865 15.7584 15.6957 15.7648 15.7067C15.7712 15.7178 15.7746 15.7304 15.7746 15.7432C15.7746 15.756 15.7712 15.7685 15.7648 15.7796L12.4864 21.4589C12.48 21.4699 12.4708 21.4791 12.4597 21.4855C12.4486 21.4919 12.4361 21.4953 12.4233 21.4953L5.80211 21.5001C5.78914 21.5003 5.77637 21.4969 5.76512 21.4905C5.75387 21.484 5.74455 21.4747 5.73811 21.4634C5.73168 21.4522 5.72837 21.4394 5.72852 21.4264C5.72868 21.4135 5.73229 21.4008 5.73899 21.3897L6.66996 19.8324C6.6764 19.8217 6.68548 19.8129 6.69632 19.8067C6.70715 19.8006 6.71939 19.7973 6.73186 19.7972H11.3758C11.3884 19.797 11.4007 19.7935 11.4115 19.7872C11.4224 19.7808 11.4314 19.7717 11.4377 19.7608L13.7997 15.7068C13.806 15.6959 13.815 15.6868 13.8258 15.6804C13.8367 15.674 13.849 15.6706 13.8616 15.6703Z" fill="black"/>
<path d="M24.8947 22.2345C24.9128 22.2347 24.9304 22.2397 24.9459 22.249C24.9614 22.2582 24.9742 22.2713 24.9831 22.287C24.9919 22.3028 24.9965 22.3205 24.9963 22.3386C24.9961 22.3566 24.9912 22.3743 24.9821 22.3898L24.0949 23.8803C24.077 23.9095 24.0516 23.924 24.0184 23.924H1.646C1.63381 23.924 1.62183 23.9208 1.61129 23.9147C1.60075 23.9085 1.59202 23.8997 1.58598 23.8891C1.57994 23.8785 1.57681 23.8665 1.57691 23.8543C1.577 23.8421 1.58032 23.8302 1.58653 23.8197L6.06537 16.094C6.09531 16.0422 6.12485 16.0422 6.15398 16.094L6.99027 17.5456C7.02293 17.6028 7.04041 17.6674 7.04105 17.7333C7.04169 17.7992 7.02546 17.8641 6.99392 17.9219C6.40806 18.9876 5.79146 20.0752 5.14412 21.1845C4.98875 21.4516 4.57971 22.0099 5.04701 22.1993C5.08789 22.2161 5.13201 22.2248 5.17689 22.2248C7.46284 22.2248 9.74879 22.2248 12.0347 22.2248C12.4231 22.2248 12.7242 22.3182 12.9609 21.9116C14.0783 19.9963 15.1796 18.0882 16.2648 16.1874C16.2757 16.1682 16.2915 16.1523 16.3106 16.1412C16.3296 16.1301 16.3513 16.1243 16.3734 16.1243C16.3955 16.1243 16.4171 16.1301 16.4362 16.1412C16.4553 16.1523 16.4711 16.1682 16.482 16.1874L17.3462 17.7204C17.3584 17.7422 17.3644 17.7667 17.3638 17.7915C17.3631 17.8163 17.3558 17.8404 17.3426 17.8612C16.7576 18.7582 16.0936 19.9817 15.1129 21.6919C14.8337 22.1762 15.5887 22.2333 15.8594 22.2308C18.8817 22.2122 21.8935 22.2134 24.8947 22.2345Z" fill="black"/>
<path d="M7.59122 18.5676L7.84126 18.9876C7.85242 19.0065 7.85861 19.028 7.85923 19.0499C7.85986 19.0719 7.85491 19.0936 7.84485 19.1131C7.83479 19.1327 7.81994 19.1493 7.80169 19.1615C7.78344 19.1737 7.76239 19.1811 7.74051 19.183H7.2595C7.23643 19.1848 7.21332 19.1803 7.19255 19.1701C7.17178 19.1599 7.15411 19.1444 7.14137 19.1251C7.12862 19.1058 7.12126 19.0834 7.12005 19.0603C7.11884 19.0372 7.12382 19.0142 7.13448 18.9937L7.36545 18.5749C7.37614 18.5546 7.39202 18.5375 7.41148 18.5253C7.43093 18.5131 7.45327 18.5063 7.47622 18.5056C7.49916 18.5048 7.52189 18.5102 7.54209 18.5211C7.56229 18.532 7.57924 18.548 7.59122 18.5676Z" fill="black"/>
<path d="M17.8344 18.5512L18.0684 19.0094C18.0766 19.0284 18.0801 19.0491 18.0787 19.0697C18.0773 19.0903 18.071 19.1103 18.0603 19.128C18.0496 19.1456 18.0348 19.1605 18.0173 19.1714C17.9997 19.1822 17.9798 19.1887 17.9592 19.1903L17.5056 19.1964C17.4819 19.1981 17.4582 19.1932 17.4371 19.1823C17.416 19.1714 17.3983 19.1549 17.3859 19.1346C17.3735 19.1143 17.3669 19.091 17.3668 19.0673C17.3668 19.0435 17.3732 19.0202 17.3855 18.9998L17.6049 18.5342C17.6175 18.5141 17.6353 18.4978 17.6564 18.487C17.6775 18.4763 17.7012 18.4716 17.7248 18.4733C17.7484 18.4751 17.7711 18.4832 17.7904 18.497C17.8097 18.5107 17.8249 18.5294 17.8344 18.5512Z" fill="black"/>
</g>
<defs>
<clipPath id="clip0_3723_8350">
<rect width="25" height="26" fill="white"/>
</clipPath>
</defs>
</svg>
