<svg xmlns="http://www.w3.org/2000/svg" fill="none" viewBox="0 0 24 26"><path fill="#fff" d="M11.625 1.574C5.208 1.574 0 6.782 0 13.2s5.208 11.625 11.625 11.625S23.25 19.616 23.25 13.2 18.042 1.574 11.625 1.574Zm4.72 17.105c-.197 0-.318-.061-.501-.169-2.925-1.762-6.328-1.837-9.69-1.148-.182.047-.421.122-.557.122a.73.73 0 0 1-.74-.741c0-.483.285-.712.637-.787 3.839-.849 7.762-.774 11.11 1.228.285.182.454.346.454.773a.708.708 0 0 1-.713.722Zm1.261-3.075c-.244 0-.408-.108-.576-.197-2.93-1.734-7.299-2.433-11.185-1.378-.225.06-.347.122-.558.122a.91.91 0 0 1-.909-.91c0-.501.244-.834.727-.97 1.303-.366 2.634-.637 4.584-.637 3.042 0 5.981.754 8.297 2.132.38.225.53.516.53.924a.908.908 0 0 1-.91.914Zm1.453-3.572c-.243 0-.393-.06-.604-.183-3.338-1.992-9.305-2.47-13.167-1.392-.17.047-.38.122-.605.122A1.082 1.082 0 0 1 3.59 9.473c0-.638.393-.999.815-1.12 1.65-.483 3.497-.713 5.508-.713 3.422 0 7.008.712 9.628 2.24.366.211.605.502.605 1.06 0 .637-.516 1.092-1.088 1.092Z"/></svg>