<svg width="25" height="26" viewBox="0 0 25 26" fill="none" xmlns="http://www.w3.org/2000/svg">
<g clip-path="url(#clip0_3723_8418)">
<path d="M17.5596 14.7332L22.2662 21.1953C22.268 21.1977 22.2693 21.2004 22.27 21.2032C22.2707 21.2061 22.2709 21.2091 22.2705 21.212C22.2701 21.2149 22.2691 21.2178 22.2676 21.2203C22.2661 21.2229 22.2641 21.2251 22.2617 21.2269L17.2104 24.9407C17.2057 24.9443 17.1996 24.9459 17.1937 24.945C17.1878 24.9442 17.1825 24.941 17.1789 24.9362L12.4136 18.4084C12.4115 18.4056 12.4088 18.4034 12.4057 18.4018C12.4026 18.4002 12.3991 18.3994 12.3956 18.3994C12.3921 18.3994 12.3887 18.4002 12.3855 18.4018C12.3824 18.4034 12.3797 18.4056 12.3776 18.4084L7.76824 24.6148C7.76465 24.6195 7.75931 24.6227 7.75339 24.6236C7.74747 24.6244 7.74146 24.6229 7.73667 24.6193L2.79816 20.8983C2.79347 20.8946 2.79043 20.8892 2.78971 20.8833C2.78899 20.8774 2.79063 20.8714 2.79429 20.8667L7.5505 14.7248C7.55276 14.722 7.55431 14.7187 7.55501 14.7151C7.55572 14.7116 7.55556 14.7079 7.55455 14.7044C7.55354 14.701 7.55171 14.6978 7.54921 14.6952C7.54671 14.6926 7.54362 14.6906 7.54019 14.6894L0.0151652 12.0874C0.0095491 12.0855 0.00491347 12.0815 0.00226054 12.0762C-0.000392377 12.0709 -0.000850884 12.0647 0.000990524 12.0591L1.95231 6.26506C1.95325 6.26221 1.95475 6.25957 1.95673 6.2573C1.9587 6.25504 1.96112 6.25319 1.96382 6.25187C1.96652 6.25055 1.96946 6.24978 1.97246 6.24962C1.97546 6.24945 1.97847 6.24988 1.9813 6.25089L9.39423 8.91084C9.39764 8.91208 9.4013 8.91248 9.40491 8.91201C9.40851 8.91153 9.41194 8.9102 9.41492 8.90811C9.41789 8.90602 9.42031 8.90325 9.42198 8.90002C9.42365 8.89679 9.42452 8.89321 9.42451 8.88958V1.07724C9.42451 1.07126 9.42688 1.06552 9.43111 1.06129C9.43534 1.05706 9.44107 1.05469 9.44705 1.05469H15.6676C15.6705 1.05469 15.6734 1.05527 15.6762 1.0564C15.6789 1.05754 15.6814 1.0592 15.6835 1.06129C15.6856 1.06338 15.6873 1.06587 15.6884 1.06861C15.6895 1.07134 15.6901 1.07427 15.6901 1.07724L15.6895 8.8986C15.6895 8.90215 15.6903 8.90565 15.692 8.90881C15.6936 8.91197 15.696 8.9147 15.6989 8.91677C15.7018 8.91884 15.7051 8.9202 15.7086 8.92074C15.7121 8.92128 15.7157 8.92097 15.7191 8.91986L23.1443 6.47508C23.1471 6.47408 23.1502 6.47367 23.1532 6.47388C23.1562 6.47409 23.1592 6.47492 23.1619 6.4763C23.1646 6.47768 23.167 6.4796 23.169 6.48194C23.1709 6.48427 23.1724 6.48698 23.1733 6.48989L24.9989 12.2942C24.9998 12.2971 25.0002 12.3 24.9999 12.303C24.9997 12.306 24.9988 12.3089 24.9974 12.3115C24.9961 12.3141 24.9942 12.3165 24.9919 12.3184C24.9896 12.3203 24.987 12.3217 24.9841 12.3226L17.5706 14.6984C17.5672 14.6996 17.5641 14.7015 17.5616 14.704C17.5591 14.7065 17.5573 14.7096 17.5562 14.713C17.5551 14.7164 17.5549 14.72 17.5555 14.7235C17.5561 14.727 17.5575 14.7304 17.5596 14.7332Z" fill="#111111"/>
</g>
<defs>
<clipPath id="clip0_3723_8418">
<rect width="25" height="26" fill="white"/>
</clipPath>
</defs>
</svg>
