<svg xmlns="http://www.w3.org/2000/svg" fill="none" viewBox="0 0 141 141"><path fill="#fff" d="m72.415 43.326 41.004 41.603c-.649.606-1.448 1.313-2.197 2.07a5623.097 5623.097 0 0 0-24.373 24.639c-.6.657-1.249.909-2.148.909-8.34-.051-16.681 0-25.022 0H58.28c9.44-9.391 18.58-18.53 27.82-27.719-9.39-9.492-18.48-18.63-27.72-27.97a3327.2 3327.2 0 0 1 14.035-13.532Z"/><path fill="#fff" d="M53.642 56.605c9.24 9.39 18.28 18.68 27.27 27.87-4.495 4.544-8.99 9.138-13.585 13.783-13.585-13.884-27.22-27.87-41.005-41.956.75-.707 1.798-1.666 2.847-2.727 7.841-7.876 15.683-15.752 23.474-23.68.65-.706 1.299-.959 2.248-.959 8.24.051 16.431 0 24.672 0h1.449c-9.29 9.341-18.33 18.53-27.37 27.669Z"/></svg>