<svg width="25" height="26" viewBox="0 0 25 26" fill="none" xmlns="http://www.w3.org/2000/svg">
<g clip-path="url(#clip0_3721_3223)">
<path fill-rule="evenodd" clip-rule="evenodd" d="M4.82076 0.714579C3.68762 1.02026 2.98847 1.41538 2.03285 2.29026C-0.56614 4.6697 -0.689281 8.70015 1.75706 11.32C2.60541 12.2286 3.40868 12.7127 4.98479 13.2653C6.5687 13.8205 7.60731 14.4526 8.85489 15.62L9.87658 16.576V18.2739C9.87658 20.1282 9.76302 20.5966 9.15541 21.2481C7.93973 22.5519 5.67136 22.5519 4.45568 21.2481C3.90993 20.6629 3.73451 20.1357 3.73451 19.0811V18.1904H1.91571H0.0969036L0.177352 19.4285C0.28761 21.1281 0.716506 22.1894 1.74058 23.2974C4.33823 26.108 8.67797 26.2474 11.4215 23.6084L12.3512 22.7141L12.8583 23.3193C13.4811 24.0623 14.6238 24.806 15.719 25.1809C16.889 25.5814 19.0732 25.5489 20.276 25.1132C24.359 23.6342 26.1587 19.2847 24.2159 15.5923C23.395 14.0326 21.6894 12.8356 19.053 11.9693C17.2372 11.3727 15.4446 10.128 14.6184 8.89043C14.2439 8.32934 14.2725 6.0662 14.6638 5.29772C15.2662 4.11506 16.3857 3.53715 17.7922 3.68257C19.4634 3.85529 20.5128 5.09348 20.5128 6.89231V7.83592H22.3316H24.1504L24.0634 6.59788C23.9516 5.00929 23.7765 4.43785 23.0922 3.42956C22.029 1.86303 20.5491 0.954384 18.4647 0.588225C16.4866 0.240674 14.0882 1.03017 12.648 2.50276L11.899 3.26854L11.1116 2.47799C9.4279 0.787361 7.03624 0.11702 4.82076 0.714579ZM7.87247 4.05683C8.74194 4.50342 9.04815 4.9128 9.78624 6.61634C10.7721 8.89133 11.305 9.71504 12.7229 11.1551C14.0772 12.5304 14.8951 13.0397 16.5923 13.5644C18.7745 14.2389 20.5599 15.4948 21.2109 16.8133C21.5922 17.5854 21.5892 19.5635 21.2055 20.2913C20.8186 21.0256 20.0949 21.7615 19.3893 22.1383C18.5459 22.5888 16.9332 22.5854 16.0744 22.1314C15.2719 21.7072 14.256 20.5446 14.087 19.857C14.0139 19.5595 13.8435 18.8432 13.7083 18.2655C12.9049 14.83 10.4247 12.1721 6.98036 11.0553C6.31762 10.8402 5.52035 10.5341 5.20845 10.3747C2.00589 8.73811 2.10791 4.83927 5.38148 3.76555C5.95763 3.57662 7.2262 3.72489 7.87247 4.05683Z" fill="#111111"/>
</g>
<defs>
<clipPath id="clip0_3721_3223">
<rect width="25" height="26" fill="white"/>
</clipPath>
</defs>
</svg>
