<svg width="25" height="26" viewBox="0 0 25 26" fill="none" xmlns="http://www.w3.org/2000/svg">
<g clip-path="url(#clip0_3715_4207)">
<g clip-path="url(#clip1_3715_4207)">
<path d="M0.278235 5.33269C0.556048 2.68861 2.01972 0.660118 4.71147 0.140118C4.95198 0.0935659 5.20149 0.05015 5.46 0.00987063C5.46412 0.00922752 5.46833 0.00947489 5.47234 0.0105958C5.47635 0.0117168 5.48007 0.0136848 5.48324 0.0163653C5.48641 0.0190458 5.48896 0.0223755 5.49071 0.0261266C5.49245 0.0298778 5.49337 0.0339617 5.49338 0.0380992V1.42378C5.49339 1.43726 5.48858 1.45029 5.47984 1.46048C5.47109 1.47067 5.45899 1.47733 5.44576 1.47924C4.12787 1.67585 2.90225 2.17951 2.23226 3.40522C1.93235 3.95444 1.76154 4.6661 1.66878 5.31387C1.66689 5.32695 1.66039 5.33891 1.65047 5.34755C1.64056 5.35619 1.62789 5.36094 1.61478 5.36092H0.303267C0.284615 5.36092 0.276271 5.35151 0.278235 5.33269Z" fill="black"/>
<rect x="4.54553" y="4.45715" width="12.22" height="21.58" rx="1.82" fill="black"/>
<path d="M2.62591 5.36097C2.62141 5.36098 2.61696 5.35999 2.61289 5.35805C2.60881 5.35612 2.60521 5.3533 2.60235 5.3498C2.59948 5.34629 2.59743 5.34219 2.59632 5.33778C2.59522 5.33338 2.5951 5.32878 2.59597 5.32432C2.9214 3.55335 3.67631 2.68668 5.45706 2.41034C5.46307 2.40941 5.46921 2.40981 5.47506 2.4115C5.48091 2.41319 5.48632 2.41613 5.49094 2.42013C5.49555 2.42413 5.49926 2.42908 5.5018 2.43466C5.50434 2.44023 5.50565 2.4463 5.50565 2.45244V3.62615C5.50569 3.64312 5.49981 3.65957 5.48904 3.6726C5.47828 3.68564 5.46331 3.69444 5.44675 3.69746C4.53216 3.86684 3.98537 4.41275 3.80638 5.33522C3.8031 5.35239 3.7928 5.36097 3.77545 5.36097H2.62591Z" fill="black"/>
<rect x="5.13501" y="14.7643" width="11.4786" height="2.92303" fill="black"/>
<path d="M5.22009 18.2H16.6601V22.49V24.18H5.22009V18.2Z" fill="black"/>
<path d="M14.4752 4.46505C14.4784 4.47627 14.4897 4.48222 14.509 4.48288C14.5267 4.48354 14.5337 4.49245 14.5301 4.50962L13.3987 10.1781C13.3983 10.1808 13.3969 10.1832 13.3948 10.185C13.3927 10.1868 13.3901 10.1878 13.3874 10.1878C13.3847 10.1879 13.3821 10.187 13.3799 10.1853C13.3778 10.1837 13.3763 10.1813 13.3757 10.1786L12.0141 4.46356L14.4752 4.46505Z" fill="black"/>
<path d="M5.40619 15.971V14.9232C5.40619 14.8088 5.46129 14.7334 5.55243 14.7334C5.64357 14.7334 5.69867 14.8088 5.69867 14.9232V14.9726H5.70291C5.78345 14.8218 5.9191 14.7334 6.07593 14.7334C6.18191 14.7334 6.31543 14.7932 6.37266 14.9726C6.45955 14.8244 6.56977 14.7334 6.7372 14.7334C6.95127 14.7334 7.12294 14.853 7.12294 15.1936V15.971C7.12294 16.0724 7.08903 16.1608 6.96822 16.1608C6.84741 16.1608 6.8135 16.0724 6.8135 15.971V15.2898C6.8135 15.1546 6.76475 15.0454 6.64395 15.0454C6.52526 15.0454 6.41928 15.1624 6.41928 15.3392V15.971C6.41928 16.0724 6.38537 16.1608 6.26457 16.1608C6.14376 16.1608 6.10985 16.0724 6.10985 15.971V15.2898C6.10985 15.1546 6.0611 15.0454 5.94029 15.0454C5.8216 15.0454 5.71563 15.1624 5.71563 15.3392V15.971C5.71563 16.0724 5.68172 16.1608 5.56091 16.1608C5.4401 16.1608 5.40619 16.0724 5.40619 15.971Z" fill="white"/>
<path d="M7.65234 15.4458C7.65234 15.6772 7.73076 15.88 7.91515 15.88C8.09954 15.88 8.17796 15.6772 8.17796 15.4458C8.17796 15.1988 8.0953 15.0142 7.91515 15.0142C7.735 15.0142 7.65234 15.1988 7.65234 15.4458ZM7.3429 15.4458C7.3429 15.0454 7.54213 14.7334 7.91515 14.7334C8.28817 14.7334 8.4874 15.0454 8.4874 15.4458C8.4874 15.8254 8.33692 16.1608 7.91515 16.1608C7.49338 16.1608 7.3429 15.8254 7.3429 15.4458Z" fill="white"/>
<path d="M8.70847 15.9814V14.411C8.70847 14.2862 8.76993 14.2212 8.86319 14.2212C8.95645 14.2212 9.01791 14.2862 9.01791 14.411V14.9258H9.02215C9.08361 14.8036 9.18958 14.7334 9.32735 14.7334C9.65374 14.7334 9.80422 15.074 9.80422 15.438C9.80422 15.9294 9.57744 16.1608 9.31887 16.1608C9.16839 16.1608 9.04334 16.0828 8.99248 15.9216H8.98824V15.9814C8.98824 16.0984 8.93949 16.1608 8.84835 16.1608C8.75298 16.1608 8.70847 16.0984 8.70847 15.9814ZM9.49479 15.451C9.49479 15.2742 9.44604 15.0298 9.24893 15.0298C9.0603 15.0272 9.00095 15.256 9.00095 15.451C9.00095 15.6668 9.06878 15.8644 9.24893 15.8644C9.41425 15.8592 9.49479 15.6746 9.49479 15.451Z" fill="white"/>
<path d="M10.0423 15.971V14.9232C10.0423 14.8218 10.0762 14.7334 10.197 14.7334C10.3178 14.7334 10.3517 14.8218 10.3517 14.9232V15.971C10.3517 16.0724 10.3178 16.1608 10.197 16.1608C10.0762 16.1608 10.0423 16.0724 10.0423 15.971ZM10.0359 14.4084C10.0359 14.2992 10.108 14.2108 10.197 14.2108C10.286 14.2108 10.3581 14.2992 10.3581 14.4084C10.3581 14.5176 10.286 14.606 10.197 14.606C10.108 14.606 10.0359 14.5176 10.0359 14.4084Z" fill="white"/>
<path d="M10.6534 15.971V14.411C10.6534 14.2862 10.7148 14.2212 10.8081 14.2212C10.9014 14.2212 10.9628 14.2862 10.9628 14.411V15.971C10.9628 16.0958 10.9014 16.1608 10.8081 16.1608C10.7148 16.1608 10.6534 16.0958 10.6534 15.971Z" fill="white"/>
<path d="M12.2097 15.5186H11.5103C11.5103 15.7188 11.6163 15.8644 11.7964 15.8644C12.0296 15.8644 12.0296 15.6772 12.1546 15.6772C12.2288 15.6772 12.2818 15.7552 12.2818 15.8254C12.2818 16.0542 11.983 16.1608 11.7964 16.1608C11.3641 16.1608 11.2009 15.802 11.2009 15.4718C11.2009 15.0298 11.4192 14.7334 11.7858 14.7334C12.1419 14.7334 12.3454 15.0428 12.3454 15.3548C12.3454 15.4848 12.3136 15.5186 12.2097 15.5186ZM11.5103 15.3002H12.0529C12.0359 15.126 11.93 14.9986 11.7922 14.9986C11.6375 14.9986 11.5442 15.1156 11.5103 15.3002Z" fill="white"/>
<path d="M12.719 15.9554L12.4923 15.0506C12.4817 15.009 12.4711 14.9674 12.4711 14.9102C12.4711 14.8114 12.5431 14.7334 12.6215 14.7334C12.736 14.7334 12.753 14.8088 12.7741 14.918L12.9373 15.75H12.9416L13.073 14.9934C13.0984 14.8452 13.1239 14.7282 13.268 14.7334C13.4142 14.7282 13.4439 14.8426 13.4714 14.9934L13.605 15.75H13.6092L13.7618 14.918C13.7809 14.8088 13.8 14.7334 13.9144 14.7334C13.9928 14.7334 14.0649 14.8114 14.0649 14.9102C14.0649 14.9674 14.0543 15.009 14.0437 15.0506L13.8169 15.9554C13.7724 16.1348 13.7385 16.1608 13.6156 16.1608C13.4863 16.1608 13.4545 16.114 13.4227 15.9632L13.2701 15.217H13.2659L13.1133 15.9632C13.0815 16.114 13.0497 16.1608 12.9204 16.1608C12.7975 16.1608 12.7636 16.1348 12.719 15.9554Z" fill="white"/>
<path d="M15.1995 15.5186H14.5001C14.5001 15.7188 14.606 15.8644 14.7862 15.8644C15.0193 15.8644 15.0193 15.6772 15.1444 15.6772C15.2186 15.6772 15.2715 15.7552 15.2715 15.8254C15.2715 16.0542 14.9727 16.1608 14.7862 16.1608C14.3538 16.1608 14.1906 15.802 14.1906 15.4718C14.1906 15.0298 14.4089 14.7334 14.7756 14.7334C15.1317 14.7334 15.3351 15.0428 15.3351 15.3548C15.3351 15.4848 15.3033 15.5186 15.1995 15.5186ZM14.5001 15.3002H15.0426C15.0257 15.126 14.9197 14.9986 14.7819 14.9986C14.6272 14.9986 14.534 15.1156 14.5001 15.3002Z" fill="white"/>
<path d="M15.5562 15.9814V14.411C15.5562 14.2862 15.6177 14.2212 15.7109 14.2212C15.8042 14.2212 15.8656 14.2862 15.8656 14.411V14.9258H15.8699C15.9313 14.8036 16.0373 14.7334 16.1751 14.7334C16.5015 14.7334 16.6519 15.074 16.6519 15.438C16.6519 15.9294 16.4252 16.1608 16.1666 16.1608C16.0161 16.1608 15.8911 16.0828 15.8402 15.9216H15.836V15.9814C15.836 16.0984 15.7872 16.1608 15.6961 16.1608C15.6007 16.1608 15.5562 16.0984 15.5562 15.9814ZM16.3425 15.451C16.3425 15.2742 16.2938 15.0298 16.0966 15.0298C15.908 15.0272 15.8487 15.256 15.8487 15.451C15.8487 15.6668 15.9165 15.8644 16.0966 15.8644C16.262 15.8592 16.3425 15.6746 16.3425 15.451Z" fill="white"/>
<path d="M17.901 15.1234V15.7604C17.901 15.919 17.9328 15.9554 17.9328 16.0152C17.9328 16.101 17.8671 16.1608 17.7929 16.1608C17.6594 16.1608 17.6149 16.0568 17.6106 15.9398C17.4898 16.1036 17.3499 16.1608 17.1867 16.1608C17.0108 16.1608 16.837 16.0126 16.837 15.7734C16.837 15.4588 17.032 15.3704 17.2694 15.3366L17.458 15.3106C17.5322 15.3002 17.5916 15.2794 17.5916 15.1702C17.5916 15.061 17.5004 15.0142 17.3966 15.0142C17.1677 15.0142 17.1613 15.2222 17.0384 15.2222C16.96 15.2222 16.907 15.1546 16.907 15.0766C16.907 14.9258 17.0808 14.7334 17.3987 14.7334C17.6954 14.7334 17.901 14.8504 17.901 15.1234ZM17.5916 15.6356V15.4874C17.5576 15.5264 17.4941 15.5394 17.458 15.5472L17.3457 15.568C17.2164 15.5914 17.1465 15.6408 17.1465 15.7552C17.1465 15.841 17.2122 15.9112 17.3181 15.9112C17.4877 15.9112 17.5916 15.776 17.5916 15.6356Z" fill="white"/>
<path d="M18.3425 15.9554L18.1158 15.0506C18.1052 15.009 18.0946 14.9674 18.0946 14.9102C18.0946 14.8114 18.1666 14.7334 18.245 14.7334C18.3595 14.7334 18.3764 14.8088 18.3976 14.918L18.5608 15.75H18.5651L18.6965 14.9934C18.7219 14.8452 18.7473 14.7282 18.8915 14.7334C19.0377 14.7282 19.0674 14.8426 19.0949 14.9934L19.2285 15.75H19.2327L19.3853 14.918C19.4044 14.8088 19.4235 14.7334 19.5379 14.7334C19.6163 14.7334 19.6884 14.8114 19.6884 14.9102C19.6884 14.9674 19.6778 15.009 19.6672 15.0506L19.4404 15.9554C19.3959 16.1348 19.362 16.1608 19.2391 16.1608C19.1098 16.1608 19.078 16.114 19.0462 15.9632L18.8936 15.217H18.8894L18.7368 15.9632C18.705 16.114 18.6732 16.1608 18.5439 16.1608C18.421 16.1608 18.387 16.1348 18.3425 15.9554Z" fill="white"/>
<path d="M20.8887 15.1234V15.7604C20.8887 15.919 20.9205 15.9554 20.9205 16.0152C20.9205 16.101 20.8548 16.1608 20.7806 16.1608C20.6471 16.1608 20.6025 16.0568 20.5983 15.9398C20.4775 16.1036 20.3376 16.1608 20.1744 16.1608C19.9985 16.1608 19.8247 16.0126 19.8247 15.7734C19.8247 15.4588 20.0197 15.3704 20.2571 15.3366L20.4457 15.3106C20.5199 15.3002 20.5792 15.2794 20.5792 15.1702C20.5792 15.061 20.4881 15.0142 20.3842 15.0142C20.1553 15.0142 20.149 15.2222 20.0261 15.2222C19.9476 15.2222 19.8946 15.1546 19.8946 15.0766C19.8946 14.9258 20.0684 14.7334 20.3864 14.7334C20.6831 14.7334 20.8887 14.8504 20.8887 15.1234ZM20.5792 15.6356V15.4874C20.5453 15.5264 20.4817 15.5394 20.4457 15.5472L20.3334 15.568C20.2041 15.5914 20.1341 15.6408 20.1341 15.7552C20.1341 15.841 20.1998 15.9112 20.3058 15.9112C20.4754 15.9112 20.5792 15.776 20.5792 15.6356Z" fill="white"/>
<path d="M21.1946 15.971V14.9102C21.1946 14.7958 21.256 14.7334 21.3344 14.7334C21.4129 14.7334 21.4743 14.7958 21.4743 14.9102V15.0558H21.4786C21.5146 14.8972 21.5845 14.7334 21.735 14.7334C21.8325 14.7334 21.9046 14.8114 21.9046 14.918C21.9046 15.0584 21.8283 15.1078 21.752 15.1078H21.6969C21.5718 15.1078 21.504 15.2144 21.504 15.529V15.971C21.504 16.0724 21.4701 16.1608 21.3493 16.1608C21.2285 16.1608 21.1946 16.0724 21.1946 15.971Z" fill="white"/>
<path d="M23.0862 14.411V15.9814C23.0862 16.0984 23.0417 16.1608 22.9463 16.1608C22.8552 16.1608 22.8064 16.0984 22.8064 15.9814V15.9216H22.8022C22.7513 16.0828 22.6263 16.1608 22.4758 16.1608C22.2172 16.1608 21.9904 15.9294 21.9904 15.438C21.9904 15.074 22.1409 14.7334 22.4673 14.7334C22.6051 14.7334 22.711 14.8036 22.7725 14.9258H22.7768V14.411C22.7768 14.2862 22.8382 14.2212 22.9315 14.2212C23.0247 14.2212 23.0862 14.2862 23.0862 14.411ZM22.2999 15.451C22.2999 15.6746 22.3804 15.8592 22.5457 15.8644C22.7259 15.8644 22.7937 15.6668 22.7937 15.451C22.7937 15.256 22.7344 15.0272 22.5457 15.0298C22.3486 15.0298 22.2999 15.2742 22.2999 15.451Z" fill="white"/>
<path d="M8.68085 2.97244C8.68085 3.43747 8.78654 3.77568 8.89222 4.11388L8.99745 4.4561H12.0453L11.7035 3.03585C11.4922 2.14807 11.3231 1.53508 10.1816 1.53508C9.39953 1.53508 8.68085 2.16921 8.68085 2.97244Z" fill="black"/>
<path fill-rule="evenodd" clip-rule="evenodd" d="M11.154 11.4698L8.99745 4.4561H12.0453L13.3311 9.79992H13.3734L14.5119 4.45632C15.7501 4.45632 16.2701 4.81 16.5965 5.51038L15.0856 11.5332C14.7685 12.7592 14.4514 13.1397 13.162 13.1397C11.9361 13.1397 11.5979 12.9283 11.154 11.4698Z" fill="white"/>
<path d="M16.6286 1.53508C15.1913 1.4928 14.9376 2.444 14.684 3.64885L14.5119 4.45632C15.7501 4.45632 16.2701 4.81 16.5965 5.51038L16.6075 5.46669H16.6498L18.1717 11.5332C18.4887 12.7592 18.8058 13.1397 20.0952 13.1397C21.3212 13.1397 21.6594 12.9283 22.1033 11.4698L24.365 4.11388C24.4707 3.77568 24.5764 3.43747 24.5764 2.97244C24.5764 2.16921 23.8577 1.53508 23.0756 1.53508C21.9342 1.53508 21.744 2.14807 21.5537 3.03585L20.0318 9.79992H19.9895L18.6579 3.64885C18.3831 2.42286 18.0871 1.4928 16.6286 1.53508Z" fill="black"/>
</g>
</g>
<defs>
<clipPath id="clip0_3715_4207">
<rect width="25" height="26" fill="white"/>
</clipPath>
<clipPath id="clip1_3715_4207">
<rect width="24.4928" height="26" fill="white" transform="translate(0.253662)"/>
</clipPath>
</defs>
</svg>
