<svg width="25" height="26" viewBox="0 0 25 26" fill="none" xmlns="http://www.w3.org/2000/svg">
<path d="M9.04917 14.5451L10.8866 14.5282L10.8953 15.7043C10.8953 21.035 9.52056 23.9215 5.73061 23.7149C1.8384 23.5021 -0.050171 20.398 0.00101278 12.9343C0.0229026 9.5102 0.329373 6.85479 1.45019 4.90996C2.53891 3.02029 4.25222 2.25769 6.25287 2.25769C7.73709 2.25769 8.84766 2.83808 9.75687 3.84875C10.6661 4.89926 11.19 6.42141 10.6558 8.03987C10.31 9.09038 10.1728 9.52219 9.51895 10.0949C9.18184 10.389 8.57329 10.5145 8.23323 10.4854C7.75894 10.4456 6.42943 10.0076 6.33749 8.34616C6.29809 7.64788 6.36084 7.3309 6.68774 6.79645C7.03508 6.22833 7.61155 6.12421 8.09604 6.12421C8.2055 6.12421 8.78049 6.16862 9.12492 6.63262C9.12492 6.63262 9.2694 6.76891 9.42847 7.09204C9.46787 7.17013 9.51895 7.32939 9.61673 7.35083C9.59484 7.34624 9.68678 7.43199 9.69846 7.03078C9.70575 6.77811 9.62549 6.46266 9.61673 6.42742C9.24604 4.85627 8.11503 4.11664 6.80155 4.15949C5.80186 4.19318 4.61828 4.8792 4.1936 5.96801C3.79956 7.0966 3.57921 9.48551 3.57921 12.2878C3.57921 15.4776 3.56754 17.9569 3.90174 19.1251C4.20529 20.292 4.78613 21.6886 6.41191 21.7161C7.95448 21.7422 9.02422 20.5385 9.04029 15.695L9.04917 14.5451Z" fill="#151515"/>
<path d="M13.8329 4.48736C12.8215 4.87326 12.3516 6.05545 12.2932 6.19635C12.2363 6.33723 12.1779 6.66646 12.1779 6.7798C12.1779 7.083 12.2976 7.20243 12.2859 7.22846C12.5238 6.70935 12.9164 6.17032 13.6373 6.05087C14.189 5.95898 14.4984 6.03708 14.8355 6.29435C14.9989 6.41839 15.1668 6.56386 15.2806 6.75376C15.4849 7.09372 15.5652 7.33109 15.5652 7.86397C15.5652 8.6036 15.4411 9.09516 14.9858 9.6403C14.5013 10.1855 14.0664 10.3968 13.4301 10.3815C12.6975 10.3631 12.3136 10.1181 11.7401 9.53924C11.168 8.95885 10.9199 8.18707 10.8805 7.24375C10.8119 5.63736 11.3971 4.43526 12.5267 3.45061C13.6781 2.44605 15.0456 2.29293 16.7383 2.28372C18.7129 2.273 20.0307 2.84266 21.0975 4.3449C21.4186 4.79815 21.5792 5.24228 21.7776 5.82878C21.9425 6.31422 21.9834 7.08447 21.9834 8.32946L21.9498 18.8666C21.9498 19.9952 21.7134 21.6261 22.7058 21.6323C23.04 21.6338 23.6807 21.6292 23.6544 20.0274L23.6384 16.709L24.9722 16.7335L24.9927 18.7686C25.0613 21.7884 24.7081 23.6921 21.6565 23.7301C20.127 23.75 18.8807 23.0563 18.4254 21.0717C17.3645 23.0563 16.1269 23.7424 14.5508 23.7424C13.338 23.7424 11.9064 23.1053 11.1183 22.1314C10.3287 21.159 10.3623 19.7731 10.3959 18.2938C10.4499 15.8238 11.6188 14.3309 13.5336 13.1238L15.7839 11.6828C17.4812 10.7089 18.4546 9.15765 18.4546 7.56188C18.4546 6.62776 18.2036 5.84678 17.7176 5.26333C17.2331 4.67988 15.9678 3.74424 13.9378 4.44713M18.3497 11.7058C17.0173 13.1514 15.4981 14.5863 14.9464 15.2233C14.3787 15.8788 13.7628 17.0747 13.6505 17.8435C13.2097 20.8617 14.4867 21.6305 15.3974 21.632C17.8681 21.6366 18.4504 18.3274 18.4095 15.3412L18.3497 11.7058Z" fill="#151515"/>
</svg>
