<svg xmlns="http://www.w3.org/2000/svg" fill="none" viewBox="0 0 141 141"><path fill="#fff" d="M112.04 57.373c.458 0 .885.105 1.245.35.82.456 1.343 1.405 1.343 2.459v7.904h7.146c1.442 0 2.589 1.229 2.589 2.773 0 1.545-1.147 2.774-2.589 2.774h-7.146v7.518c0 1.545-1.147 2.774-2.588 2.774H92.143c-1.441 0-2.588-1.229-2.588-2.774V70.72c.065-1.474 1.212-2.668 2.588-2.668h17.306v-5.13H89.487l-9.473 18.864c-.163.844-.656 1.58-1.408 1.968a2.62 2.62 0 0 1-1.115.28c-.885 0-1.77-.49-2.228-1.37a2.204 2.204 0 0 1-.23-.49l-7.472-15.737-7.572 15.386c-.327.809-.82 1.545-1.574 1.968a2.62 2.62 0 0 1-1.115.28c-.885 0-1.77-.49-2.228-1.369-.098-.14-.164-.315-.23-.49l-9.145-19.215H30.421v5.13H42.78c1.441 0 2.589 1.229 2.589 2.773 0 1.545-1.148 2.774-2.589 2.774H30.421v7.659c0 1.544-1.147 2.774-2.588 2.774-1.442 0-2.589-1.23-2.589-2.774v-7.659h-7.276c-1.442 0-2.589-1.229-2.589-2.773 0-1.545 1.147-2.774 2.589-2.774h7.146v-7.904c0-1.054.558-1.968 1.343-2.458.36-.21.787-.35 1.245-.35h19.37a2.3 2.3 0 0 1 1.18.315 2.454 2.454 0 0 1 1.279 1.334L57.2 75.186l7.67-15.387c.392-.844.59-1.615 1.44-2.038a2.62 2.62 0 0 1 1.115-.28 2.34 2.34 0 0 1 1.738.738c.458.386.69.669 1.016 1.335l7.245 15.632 8.13-16.158a2.54 2.54 0 0 1 .852-.949c.458-.386 1.016-.633 1.672-.633h23.962M94.636 78.343h14.815v-4.707H94.636v4.707Zm17.404-26.66H88.078c-1.738 0-3.44.633-4.819 1.757a8.04 8.04 0 0 0-2.294 2.704l-.065.14-3.31 6.604s-3.837-8.078-4.984-9.062c-1.44-1.335-3.277-2.073-5.179-2.073-1.18 0-2.36.28-3.44.843-2.066 1.054-3.213 3.022-4.164 5.305l-2.49 4.987-3.048-6.394c-.788-1.722-2.131-3.127-3.771-3.933a7.442 7.442 0 0 0-3.441-.843H27.702c-1.31 0-2.621.35-3.77 1.019-2.556 1.474-4.13 4.356-4.13 7.447v2.214h-1.837c-4.359 0-7.9 3.792-7.9 8.467 0 4.674 3.539 8.466 7.9 8.466h1.836V81.3c0 4.672 3.54 8.467 7.901 8.467s7.9-3.793 7.9-8.467v-1.968h7.016c1.507 0 2.95-.455 4.163-1.264l3.114 6.534c.163.386.327.739.525 1.09 1.442 2.528 4 4.075 6.752 4.075 1.18 0 2.36-.28 3.44-.844 1.935-.984 3.605-2.668 4.458-4.811l2.262-5.376 2.82 5.901c.163.386.326.739.522 1.09 1.442 2.528 4 4.075 6.752 4.075 1.18 0 2.36-.28 3.44-.844 1.804-.948 3.213-2.598 3.935-4.566 1.18 3.092 4.032 5.27 7.342 5.27h19.897c4.359 0 7.9-3.653 7.9-8.324v-1.968h1.837c4.359 0 7.9-3.793 7.9-8.467 0-4.671-3.539-8.467-7.9-8.467h-1.837v-2.213c0-3.127-1.572-5.97-4.13-7.448a6.924 6.924 0 0 0-3.77-1.091Z"/></svg>