<svg width="26" height="24" viewBox="0 0 26 24" fill="none" xmlns="http://www.w3.org/2000/svg">
<path d="M14.2028 4.12109C18.0678 8.02471 22.0189 12.0151 25.9988 16.0343C25.812 16.2078 25.5821 16.4103 25.3666 16.6271C23.0247 18.9693 20.6827 21.3259 18.3551 23.6825C18.1827 23.8705 17.9959 23.9428 17.7373 23.9428C15.3379 23.9283 12.9384 23.9428 10.539 23.9428C10.4384 23.9428 10.3522 23.9428 10.1367 23.9428C12.8522 21.2536 15.4815 18.6368 18.1396 16.0054C15.4384 13.2874 12.8235 10.6705 10.1655 7.99579C11.5304 6.68013 12.8522 5.40784 14.2028 4.12109Z" fill="black"/>
<path d="M8.80256 7.92289C11.4606 10.612 14.0612 13.2723 16.6474 15.9036C15.3543 17.2048 14.0612 18.5205 12.7393 19.8506C8.83129 15.8747 4.90888 11.8699 0.943359 7.83614C1.15888 7.63373 1.4606 7.35904 1.76233 7.05542C4.01807 4.8 6.27382 2.54458 8.5152 0.274699C8.70198 0.0722891 8.88876 0 9.16175 0C11.5324 0.0144578 13.8888 0 16.2595 0C16.3744 0 16.5037 0 16.6761 0C14.0037 2.6747 11.4031 5.30602 8.80256 7.92289Z" fill="black"/>
</svg>
