<svg width="25" height="26" viewBox="0 0 25 26" fill="none" xmlns="http://www.w3.org/2000/svg">
<g clip-path="url(#clip0_3723_8367)">
<path d="M12.5 25.5C5.6075 25.5 0 19.8925 0 13C0 6.1075 5.6075 0.5 12.5 0.5C14.0859 0.5 15.6306 0.792812 17.0913 1.37094C17.1784 1.40531 17.245 1.47781 17.2719 1.56781C17.2984 1.6575 17.2828 1.75469 17.2288 1.83125L15.4909 4.3C15.4147 4.40844 15.2775 4.45531 15.1506 4.41625C14.2953 4.15219 13.4034 4.01844 12.5 4.01844C7.5475 4.01844 3.51844 8.0475 3.51844 13C3.51844 17.9525 7.5475 21.9819 12.5 21.9819C13.3959 21.9819 14.2809 21.8497 15.1306 21.5897C15.2575 21.5509 15.3941 21.5978 15.4703 21.7059L17.2094 24.1766C17.2631 24.2531 17.2791 24.3503 17.2522 24.4403C17.2253 24.53 17.1584 24.6031 17.0709 24.6372C15.6166 25.2097 14.0784 25.5 12.5 25.5Z" fill="#151515"/>
<path d="M24.6941 1.05658H21.7869C21.6182 1.05658 21.481 1.19345 21.481 1.36252V4.30533C21.146 3.96033 20.79 3.6322 20.4122 3.32314C20.3466 3.26939 20.2613 3.24533 20.1772 3.25689C20.0932 3.26845 20.0175 3.31439 19.9685 3.38377L18.2897 5.76908C18.1988 5.89814 18.2213 6.07502 18.3407 6.17752C20.3332 7.88314 21.4772 10.3644 21.481 12.9866V13.0128C21.4772 15.6428 20.3279 18.1288 18.3257 19.835C18.2054 19.9372 18.1832 20.1147 18.2741 20.2441L19.9525 22.6288C20.0013 22.6981 20.0769 22.7441 20.161 22.756C20.175 22.7578 20.1888 22.7588 20.2025 22.7588C20.2725 22.7588 20.341 22.7347 20.396 22.6897C20.7797 22.3772 21.1413 22.0444 21.481 21.6941V24.6231C21.481 24.7922 21.6182 24.9291 21.7869 24.9291H24.6941C24.8632 24.9291 25 24.7922 25 24.6231V1.36252C25 1.19345 24.8635 1.05658 24.6941 1.05658Z" fill="#111111"/>
</g>
<defs>
<clipPath id="clip0_3723_8367">
<rect width="25" height="26" fill="white"/>
</clipPath>
</defs>
</svg>
