<svg width="25" height="26" viewBox="0 0 25 26" fill="none" xmlns="http://www.w3.org/2000/svg">
<g clip-path="url(#clip0_3726_8876)">
<path d="M8.39877 10.0645C7.79166 9.89363 7.09011 9.96409 6.54445 9.74223C3.84916 8.64493 -0.192269 3.21987 0.00710417 0.308722C0.0111016 0.245762 0.0400829 0.230272 0.0940487 0.262252L11.7192 7.18336C11.7591 7.20734 11.7841 7.19635 11.7941 7.15038C12.4657 4.07133 16.0349 3.79251 17.6809 6.23446C17.6936 6.25358 17.7113 6.26895 17.7322 6.27896C17.753 6.28898 17.7762 6.29328 17.7993 6.29142C20.1798 6.13702 22.6008 5.94364 24.9678 6.21797C24.9763 6.21837 24.9845 6.22214 24.9906 6.22847C24.9966 6.23479 25 6.24315 25 6.2517C25 6.26025 24.9966 6.26829 24.9906 6.27405C24.9845 6.27981 24.9763 6.28283 24.9678 6.28243C22.19 6.51928 19.4647 6.90903 16.7889 7.72002C15.8805 7.99434 14.9766 8.86978 14.8672 9.87115C14.383 14.3188 10.46 16.8897 6.1472 15.3382C6.11323 15.3252 6.08524 15.3257 6.06326 15.3397C6.02528 15.3637 6.02728 15.3846 6.06925 15.4026C7.29098 15.9138 8.41676 16.1132 9.72993 16.2466C9.73648 16.2472 9.74272 16.2497 9.74783 16.2538C9.75295 16.2579 9.75672 16.2635 9.75865 16.2698C9.76058 16.276 9.7606 16.2828 9.75868 16.2891C9.75677 16.2953 9.75302 16.3009 9.74792 16.3051L8.49471 17.3379C8.46273 17.3639 8.42826 17.3674 8.39128 17.3484C7.92657 17.1105 7.47686 16.8557 7.04214 16.5839C7.02615 16.5739 7.01066 16.5714 6.99567 16.5764C6.95769 16.5874 6.95419 16.6059 6.98517 16.6319L8.18291 17.6122C8.21389 17.6372 8.21889 17.6667 8.1979 17.7007L7.39891 19.0333C7.37193 19.0783 7.34195 19.0803 7.30897 19.0393L6.22815 17.6722C6.20517 17.6442 6.19068 17.6482 6.18468 17.6842C6.17968 17.7132 6.18718 17.7466 6.20717 17.7846C6.54295 18.4222 6.83627 18.9449 7.08711 19.3526C7.11109 19.3896 7.11659 19.4296 7.1036 19.4725L6.58493 21.3014C6.58248 21.3106 6.57718 21.3187 6.5698 21.3247C6.56242 21.3307 6.55333 21.3342 6.54384 21.3347C6.53435 21.3352 6.52494 21.3327 6.51697 21.3275C6.50901 21.3223 6.50288 21.3148 6.49948 21.3059L5.63303 19.1997C5.61604 19.1578 5.60205 19.1587 5.59106 19.2027C5.48313 19.615 6.09024 21.3149 6.24764 21.7901C6.3136 21.988 6.32909 22.1873 6.29411 22.3882C6.10123 23.5085 5.92135 24.6193 5.75445 25.7206C5.75338 25.7292 5.74944 25.7372 5.74325 25.7431C5.73706 25.7491 5.72897 25.7529 5.72023 25.7537C5.7115 25.7546 5.70262 25.7525 5.69498 25.7479C5.68734 25.7432 5.68137 25.7363 5.678 25.7281C4.38432 22.3762 1.14488 14.83 3.59283 11.5141C4.72461 9.98058 6.50698 9.93561 8.38678 10.1275C8.39513 10.1291 8.40377 10.1273 8.4108 10.1225C8.41783 10.1177 8.42267 10.1104 8.42426 10.102C8.42585 10.0937 8.42406 10.085 8.41928 10.078C8.4145 10.071 8.40712 10.0661 8.39877 10.0645ZM16.1324 6.29142C16.1324 6.22095 16.1185 6.15116 16.0915 6.08605C16.0645 6.02094 16.025 5.96178 15.9752 5.91195C15.9253 5.86211 15.8662 5.82258 15.8011 5.79561C15.736 5.76864 15.6662 5.75476 15.5957 5.75476C15.4534 5.75476 15.3169 5.8113 15.2162 5.91195C15.1156 6.01259 15.059 6.14909 15.059 6.29142C15.059 6.43375 15.1156 6.57025 15.2162 6.6709C15.3169 6.77154 15.4534 6.82808 15.5957 6.82808C15.6662 6.82808 15.736 6.8142 15.8011 6.78723C15.8662 6.76026 15.9253 6.72073 15.9752 6.6709C16.025 6.62106 16.0645 6.5619 16.0915 6.49679C16.1185 6.43168 16.1324 6.3619 16.1324 6.29142Z" fill="#111111"/>
<path d="M11.2873 6.63923L6.58782 3.76555C6.54585 3.73957 6.52486 3.70059 6.52486 3.64862L6.51587 0.830415C6.51587 0.731477 6.54935 0.718486 6.61631 0.79144C8.40317 2.72671 10.0371 4.48509 11.3473 6.57926C11.3526 6.58761 11.3548 6.59749 11.3537 6.60729C11.3526 6.61709 11.3482 6.62622 11.3413 6.6332C11.3343 6.64017 11.3252 6.64457 11.3154 6.64566C11.3056 6.64676 11.2957 6.64449 11.2873 6.63923Z" fill="#111111"/>
</g>
<defs>
<clipPath id="clip0_3726_8876">
<rect width="25" height="26" fill="white"/>
</clipPath>
</defs>
</svg>
