<svg xmlns="http://www.w3.org/2000/svg" fill="none" viewBox="0 0 20 20"><path data-morph="start" fill="currentColor" fill-rule="evenodd" d="M4.31 1.066h5.71c.372 0 .68 0 .933.018.263.018.51.056.748.155.555.23.997.671 1.227 1.227.098.238.137.485.155.748.017.253.017.561.017.932v.02a.6.6 0 1 1-1.2 0c0-.396 0-.663-.014-.87a1.173 1.173 0 0 0-.067-.371 1.067 1.067 0 0 0-.577-.577 1.173 1.173 0 0 0-.37-.067A14.26 14.26 0 0 0 10 2.266H4.334c-.477 0-.798 0-1.046.021-.241.02-.36.055-.439.096-.2.102-.364.265-.466.466-.04.08-.076.197-.095.438-.02.248-.021.57-.021 1.046V10c0 .396 0 .664.014.87.014.203.039.303.067.371.108.262.316.47.577.578.068.028.169.052.37.066.208.014.475.015.872.015a.6.6 0 0 1 0 1.2h-.02c-.371 0-.68 0-.933-.018a2.329 2.329 0 0 1-.748-.155 2.267 2.267 0 0 1-1.227-1.226 2.328 2.328 0 0 1-.155-.748c-.017-.253-.017-.562-.017-.933V4.31c0-.446 0-.817.025-1.12.025-.314.08-.608.222-.885.217-.426.564-.773.99-.99.277-.142.571-.197.886-.223.303-.025.673-.025 1.12-.025ZM10.141 6.9h5.55c.445 0 .816 0 1.118.024.315.026.609.082.886.223.426.217.773.564.99.99.142.277.197.57.223.886.025.302.025.673.025 1.119v5.549c0 .446 0 .816-.025 1.119-.026.315-.081.609-.223.885a2.266 2.266 0 0 1-.99.991c-.277.141-.57.197-.886.222-.302.025-.673.025-1.119.025h-5.549c-.445 0-.816 0-1.119-.025-.315-.025-.608-.08-.885-.222a2.266 2.266 0 0 1-.99-.99c-.142-.277-.197-.571-.223-.886-.025-.303-.025-.673-.025-1.12v-5.548c0-.446 0-.817.025-1.12.026-.314.081-.608.222-.885.218-.426.564-.773.99-.99.278-.141.571-.197.886-.223.303-.024.674-.024 1.12-.024Zm-1.02 1.22c-.242.02-.36.055-.44.096-.2.102-.363.265-.466.466-.04.08-.075.198-.095.439-.02.247-.02.569-.02 1.045v5.5c0 .477 0 .798.02 1.046.02.241.055.36.095.439.103.2.266.364.467.466.08.04.197.076.438.095.248.02.57.021 1.046.021h5.5c.476 0 .798 0 1.046-.02.24-.02.359-.056.438-.096.2-.102.364-.266.466-.466.04-.08.076-.198.096-.439.02-.248.02-.569.02-1.046v-5.5c0-.476 0-.798-.02-1.045-.02-.241-.055-.36-.096-.439a1.066 1.066 0 0 0-.466-.466c-.08-.04-.198-.076-.438-.096-.248-.02-.57-.02-1.046-.02h-5.5c-.477 0-.798 0-1.046.02Z" clip-rule="evenodd"/><path data-morph="end" fill="currentColor" d="m5 14.422-3.542-3.541a.763.763 0 0 1-.24-.584.839.839 0 0 1 .261-.583.879.879 0 0 1 .583-.24.763.763 0 0 1 .584.24l4.125 4.125-.604.583a.88.88 0 0 1-.584.24.763.763 0 0 1-.583-.24Zm4.708 0-3.541-3.541a.777.777 0 0 1-.23-.573c0-.23.077-.427.23-.594a.811.811 0 0 1 .593-.25c.23 0 .427.083.594.25l2.938 2.938 7.083-7.084a.764.764 0 0 1 .583-.24.839.839 0 0 1 .584.261.88.88 0 0 1 .24.583.763.763 0 0 1-.24.584l-7.667 7.666a.8.8 0 0 1-.583.25.8.8 0 0 1-.584-.25Zm.584-4.125L9.104 9.131l3.542-3.542a.777.777 0 0 1 .573-.23c.229 0 .427.077.593.23.167.167.25.365.25.594 0 .229-.083.427-.25.593l-3.52 3.521Z"/></svg>