<svg xmlns="http://www.w3.org/2000/svg" fill="none" viewBox="0 0 140 140"><path fill="#fff" d="M42 14h55.742v111.484H85.687c.194-.266.34-.537.439-.813l.078-.162v-20.741c0-2.608-4.341-4.837-10.93-6.118a64.513 64.513 0 0 0-4.265-.831c.77-.112 14.347-2.165 14.347-7.637 0-5.04-15.708-6.317-15.708-6.317s15.496-2.671 15.496-7.328c0-3.693-16.5-6.433-16.5-6.433s16.11-2.323 16.11-7.375c0-4.297-14.938-6.584-14.938-6.584s14.504-1.58 14.504-7.06c0-4.217-15.285-6.91-15.285-6.91s15.15-1.94 15.15-6.76c0-6.27-20.022-7.722-20.022-7.722l-3.121 4.03s13.701 1.3 13.701 3.542c0 2.025-27.3 4.06-32.743 4.45V14Z"/><path fill="#fff" d="M74.297 89.322c0 2.718-27.309 5.145-32.297 5.53V86.04c.317.021.691.042 1.117.063.362.017.762.035 1.194.053 1.021.043 2.224.088 3.55.137h.01c9.825.365 26.426.98 26.426 3.028ZM74.297 75.978c0 2.665-27.084 4.838-32.297 5.218V71.68c1.25.113 3.207.248 5.558.41h.005c9.9.68 26.734 1.835 26.734 3.888ZM74.565 62.008c0 2.554-26.718 4.38-32.565 4.752v-8.59c2.244.307 6.356.557 10.921.835 9.783.594 21.644 1.314 21.644 3.003ZM74.297 48.06c0 2.636-25.53 4.516-32.297 4.967V43.62c.733.07 1.738.148 2.942.238.754.056 1.587.117 2.479.18 9.82.71 26.876 1.943 26.876 4.023Z"/></svg>