<svg width="25" height="26" viewBox="0 0 25 26" fill="none" xmlns="http://www.w3.org/2000/svg">
<g clip-path="url(#clip0_3695_5062)">
<path d="M0.526252 5.68846C0.164926 6.05182 0 6.56969 0 7.08009C0 8.40092 1.27864 8.26173 2.04437 7.70731C2.94157 7.05769 3.88653 6.48171 4.8164 5.88665C5.60166 5.38413 8.57597 4.31685 8.57597 5.96505C8.57597 7.77074 7.48773 8.94886 6.5879 10.4296C1.53497 18.7445 -1.60022 21.9436 1.36019 21.9436C3.12045 21.9436 4.61114 18.7246 5.41768 17.3215C7.40652 13.8617 10.6983 8.3904 13.8188 6.86164C17.065 5.27126 16.9392 7.26395 9.99663 18.7445C8.81982 20.6906 9.53974 21.6822 10.7777 21.5055C11.6579 21.3799 12.0125 20.1987 12.6496 18.9819C14.6983 15.0686 16.7472 9.90669 20.9418 8.65684C23.1178 8.00848 20.7481 12.0323 20.2791 12.9602C19.3959 14.708 18.5293 16.1777 17.7393 17.9652C16.8491 19.9796 17.7393 22.6428 20.6906 22.6428C21.9596 22.6428 23.7734 22.2301 24.6148 21.1532C25.2969 20.2801 25.0796 18.3163 23.9109 19.4915C23.1461 20.2606 19.892 22.7055 19.8427 19.9321C19.7707 15.8771 23.9109 13.1011 23.9109 9.11455C23.9109 6.02942 20.0596 6.9421 17.5417 9.11455C17.8193 8.14902 18.5394 4.44782 14.4232 5.27685C12.8319 5.59736 11.599 6.91429 10.2132 7.82491C10.6983 5.73519 9.94714 4.44835 8.61495 3.77851C6.34009 2.63469 2.20241 4.00289 0.526252 5.68846Z" fill="#111111"/>
</g>
<defs>
<clipPath id="clip0_3695_5062">
<rect width="25" height="26" fill="white"/>
</clipPath>
</defs>
</svg>
