<svg width="25" height="26" viewBox="0 0 25 26" fill="none" xmlns="http://www.w3.org/2000/svg">
<path fill-rule="evenodd" clip-rule="evenodd" d="M0 7.64286V8.53572H12.5H25V7.64286V6.75H12.5H0V7.64286ZM6.28837 13.9666C5.15281 15.8898 4.18463 17.4172 4.1369 17.3609C4.08904 17.3044 3.1639 15.7593 2.08088 13.9272C0.997993 12.0952 0.0867645 10.5962 0.0560161 10.5962C0.0251337 10.5962 0 12.5433 0 14.9231V19.25H12.5H25V14.8952V10.5405L22.9816 13.9337C21.8715 15.8 20.9209 17.3269 20.8691 17.3269C20.8174 17.3269 19.8806 15.8125 18.7876 13.9615C17.6944 12.1106 16.7592 10.5962 16.7096 10.5962C16.6599 10.5962 16.2076 11.2916 15.7044 12.1415C15.2012 12.9915 14.2833 14.5401 13.6645 15.5831L12.5394 17.4794L12.1028 16.7507C11.8626 16.3499 10.9559 14.8166 10.0877 13.3434C9.21967 11.8702 8.47421 10.6209 8.43112 10.5673C8.38809 10.5136 7.42382 12.0433 6.28837 13.9666Z" fill="#151515"/>
</svg>
