<svg width="25" height="26" viewBox="0 0 25 26" fill="none" xmlns="http://www.w3.org/2000/svg">
<path d="M3.23621 4.53705H4.61355C5.16772 4.53705 5.59352 4.60283 5.89127 4.73422C6.18885 4.86561 6.42399 5.06755 6.59654 5.33987C6.76908 5.6122 6.85536 5.91471 6.85536 6.24708C6.85536 6.55754 6.77973 6.84003 6.62847 7.09487C6.47722 7.34972 6.25494 7.55642 5.96197 7.71467C6.32501 7.83812 6.60432 7.98286 6.80022 8.14921C6.99581 8.3154 7.14817 8.51654 7.25717 8.75248C7.36616 8.98826 7.4205 9.24406 7.4205 9.51956C7.4205 10.0799 7.21538 10.5542 6.80531 10.942C6.39524 11.3298 5.84519 11.5238 5.15485 11.5238H3.23621V4.53705ZM3.92019 5.22103V7.45823H4.32009C4.80563 7.45823 5.16264 7.41311 5.39111 7.32287C5.61958 7.23262 5.80054 7.09011 5.93385 6.89548C6.06715 6.70069 6.13372 6.48461 6.13372 6.24708C6.13372 5.92726 6.02187 5.67638 5.79816 5.49431C5.57446 5.31223 5.21825 5.22119 4.72953 5.22119L3.92019 5.22103ZM3.92019 8.16096V10.8399H4.78625C5.29689 10.8399 5.67106 10.79 5.90906 10.6903C6.14691 10.5906 6.33804 10.4347 6.4823 10.2224C6.62657 10.0103 6.69886 9.78076 6.69886 9.5337C6.69886 9.22356 6.59733 8.95283 6.39444 8.72166C6.19155 8.49048 5.91256 8.33208 5.55762 8.2466C5.31961 8.18972 4.90557 8.16112 4.31533 8.16112H3.92019V8.16096Z" fill="black"/>
<path d="M8.80762 4.53705H12.8117V5.22103H9.50574V7.41073H12.7831V8.09471H9.50574V10.84H12.7831V11.524H8.80762V4.53705Z" fill="black"/>
<path d="M13.2963 10.2224L13.89 9.86624C14.308 10.6357 14.7909 11.0205 15.3387 11.0205C15.573 11.0205 15.7929 10.9659 15.9988 10.8567C16.2046 10.7474 16.3614 10.6011 16.469 10.4172C16.5765 10.2337 16.6305 10.0389 16.6305 9.83303C16.6305 9.59868 16.5513 9.36926 16.393 9.14428C16.1746 8.83399 15.7754 8.4603 15.196 8.02338C14.6134 7.58312 14.2508 7.26504 14.1083 7.06866C13.8614 6.73946 13.7378 6.38325 13.7378 6.00003C13.7378 5.69593 13.8106 5.419 13.9563 5.16876C14.102 4.91868 14.3069 4.72167 14.5714 4.57741C14.8358 4.4333 15.1232 4.36133 15.4335 4.36133C15.7629 4.36133 16.0708 4.44283 16.3573 4.606C16.6439 4.76918 16.947 5.06914 17.2669 5.50607L16.697 5.93838C16.4342 5.59011 16.2101 5.36053 16.0249 5.24963C15.8396 5.13889 15.6377 5.08344 15.4192 5.08344C15.1374 5.08344 14.907 5.16892 14.7281 5.33988C14.5492 5.51099 14.4597 5.72151 14.4597 5.97159C14.4597 6.12364 14.4914 6.27076 14.5548 6.41328C14.618 6.55579 14.7335 6.71102 14.9014 6.8788C14.9933 6.96745 15.294 7.20021 15.8039 7.57708C16.4086 8.02369 16.8234 8.42106 17.0484 8.76932C17.2732 9.11759 17.3857 9.4676 17.3857 9.81889C17.3857 10.3256 17.1933 10.7658 16.8086 11.1393C16.424 11.5132 15.9561 11.6999 15.4051 11.6999C14.9807 11.6999 14.5961 11.5866 14.2508 11.3602C13.9056 11.1338 13.5875 10.7545 13.2963 10.2224Z" fill="black"/>
<path d="M18.1691 5.22103V4.53705H21.9973V5.22103H20.4395V11.5238H19.7271V5.22103H18.1691Z" fill="black"/>
<path d="M10.8922 14.8624L10.2557 15.3508C9.90459 14.8936 9.48302 14.5469 8.99098 14.3111C8.49893 14.0751 7.95844 13.9572 7.36967 13.9572C6.72566 13.9572 6.12955 14.1118 5.58117 14.4208C5.03241 14.7301 4.60717 15.145 4.30544 15.6663C4.00354 16.1875 3.85268 16.7737 3.85268 17.4247C3.85268 18.4088 4.19019 19.2299 4.86503 19.8882C5.54006 20.5467 6.39127 20.876 7.41904 20.876C8.54922 20.876 9.49495 20.4333 10.2557 19.5481L10.8922 20.031C10.4899 20.5432 9.98773 20.9391 9.38612 21.219C8.78451 21.4989 8.11242 21.6387 7.36985 21.6387C5.95795 21.6387 4.84392 21.1687 4.0285 20.2285C3.34448 19.4349 3.00256 18.4765 3.00256 17.3535C3.00256 16.1721 3.41661 15.1781 4.24525 14.3715C5.07389 13.5648 6.11157 13.1616 7.35902 13.1616C8.11242 13.1616 8.79276 13.3106 9.40007 13.6089C10.007 13.9069 10.5044 14.3248 10.8922 14.8624Z" fill="#111111"/>
<path d="M11.6769 19.9321L12.3626 19.5206C12.8454 20.4094 13.4032 20.8539 14.036 20.8539C14.3067 20.8539 14.5607 20.7908 14.7985 20.6647C15.0362 20.5384 15.2172 20.3694 15.3416 20.1571C15.466 19.9451 15.5285 19.7201 15.5285 19.4822C15.5285 19.2115 15.4369 18.9465 15.2541 18.6866C15.0015 18.3282 14.5407 17.8965 13.8714 17.3918C13.1983 16.8833 12.7795 16.5158 12.6149 16.289C12.3295 15.9087 12.1869 15.4972 12.1869 15.0546C12.1869 14.7033 12.2712 14.3834 12.4393 14.0943C12.6076 13.8054 12.8443 13.5779 13.1499 13.4112C13.4551 13.2448 13.7873 13.1616 14.1457 13.1616C14.5262 13.1616 14.8819 13.2558 15.2128 13.4443C15.5439 13.6327 15.894 13.9792 16.2637 14.484L15.6052 14.9833C15.3016 14.581 15.0428 14.3158 14.8288 14.1877C14.6148 14.0598 14.3818 13.9958 14.1294 13.9958C13.8036 13.9958 13.5375 14.0945 13.3309 14.292C13.1242 14.4896 13.0211 14.7328 13.0211 15.0217C13.0211 15.1973 13.0576 15.3673 13.1308 15.5319C13.204 15.6965 13.3373 15.8759 13.5313 16.0697C13.6374 16.1721 13.985 16.4409 14.5739 16.8763C15.2724 17.3922 15.7516 17.8512 16.0115 18.2535C16.271 18.6558 16.401 19.0601 16.401 19.4659C16.401 20.0512 16.1787 20.5597 15.7344 20.9912C15.2899 21.4231 14.7494 21.6387 14.1131 21.6387C13.6227 21.6387 13.1783 21.5078 12.7795 21.2463C12.3809 20.9846 12.0133 20.5467 11.6769 19.9321Z" fill="#111111"/>
<path d="M17.2729 19.9321L17.9586 19.5206C18.4415 20.4094 18.9992 20.8539 19.6322 20.8539C19.9029 20.8539 20.1569 20.7908 20.3946 20.6647C20.6325 20.5384 20.8134 20.3694 20.9381 20.1571C21.0621 19.9451 21.1245 19.7201 21.1245 19.4822C21.1245 19.2115 21.0331 18.9465 20.8503 18.6866C20.5978 18.3282 20.1369 17.8965 19.4676 17.3918C18.7946 16.8833 18.3758 16.5158 18.211 16.289C17.9258 15.9087 17.7832 15.4972 17.7832 15.0546C17.7832 14.7033 17.8672 14.3834 18.0355 14.0943C18.2038 13.8054 18.4406 13.5779 18.7461 13.4112C19.0514 13.2448 19.3835 13.1616 19.742 13.1616C20.1223 13.1616 20.4779 13.2558 20.809 13.4443C21.1399 13.6327 21.4901 13.9792 21.8597 14.484L21.2012 14.9833C20.8977 14.581 20.6389 14.3158 20.4251 14.1877C20.2111 14.0598 19.9778 13.9958 19.7255 13.9958C19.3999 13.9958 19.1336 14.0945 18.9271 14.292C18.7203 14.4896 18.6171 14.7328 18.6171 15.0217C18.6171 15.1973 18.6536 15.3673 18.7269 15.5319C18.8001 15.6965 18.9335 15.8759 19.1275 16.0697C19.2334 16.1721 19.5812 16.4409 20.1702 16.8763C20.8687 17.3922 21.3477 17.8512 21.6076 18.2535C21.8671 18.6558 21.9972 19.0601 21.9972 19.4659C21.9972 20.0512 21.7749 20.5597 21.3304 20.9912C20.8859 21.4231 20.3456 21.6387 19.7091 21.6387C19.2189 21.6387 18.7746 21.5078 18.3758 21.2463C17.977 20.9848 17.6095 20.5467 17.2729 19.9321Z" fill="#111111"/>
</svg>
