<svg width="25" height="26" viewBox="0 0 25 26" fill="none" xmlns="http://www.w3.org/2000/svg">
<g clip-path="url(#clip0_3714_4190)">
<path fill-rule="evenodd" clip-rule="evenodd" d="M6 3.28985V6.57964L6.8125 6.54173C11.6848 6.31442 13.6404 6.0936 13.6404 5.77085C13.6404 5.57591 12.5811 5.28268 11.2099 5.09813C10.9236 5.05961 10.6571 5.00676 10.6175 4.9807C10.5663 4.94699 10.6656 4.78145 10.963 4.40524C11.3563 3.90759 11.3906 3.87934 11.5553 3.91652C11.6516 3.93821 11.8714 3.98171 12.0439 4.01311C12.8767 4.16486 13.7653 4.39187 14.3224 4.59532C15.3171 4.95847 15.807 5.32648 15.807 5.71034C15.807 6.0563 15.2957 6.45517 14.4956 6.73351C13.9878 6.91023 13.0156 7.16822 12.8577 7.16822C12.5631 7.16822 12.7766 7.27508 13.6212 7.55027C15.1109 8.03558 15.729 8.36592 15.9146 8.77591C16.1332 9.25904 15.3906 9.82836 13.7714 10.4189C13.371 10.565 13.0815 10.6994 13.128 10.7176C13.1746 10.7359 13.4693 10.8314 13.7829 10.9299C15.4903 11.4664 16.2738 12.0085 16.0334 12.4871C15.8293 12.8934 14.7063 13.345 13.0855 13.6725C12.8901 13.712 12.7426 13.7655 12.7576 13.7915C12.7842 13.8374 13.1763 13.9686 13.9254 14.182C14.5583 14.3623 15.4252 14.6963 15.679 14.8577C16.2676 15.2319 16.1631 15.5969 15.3338 16.0642C14.9311 16.2911 13.3386 16.8878 13.1357 16.8878C13.072 16.8878 13.0072 16.9097 12.9917 16.9364C12.9763 16.9631 13.1993 17.0349 13.4873 17.0958C14.2137 17.2497 15.2679 17.5946 15.6 17.787C15.9309 17.9786 16.1491 18.2618 16.1491 18.4994C16.1491 18.9118 15.1054 19.6249 13.8399 20.0771C13.589 20.1667 13.3639 20.2601 13.3395 20.2847C13.3152 20.3092 13.6455 20.3777 14.0735 20.4368C15.2955 20.6057 16.2632 20.9731 16.2632 21.4014C16.2632 21.8297 16.2632 21.7157 16.2632 21.7157V23.8579V26H17.6316H19V13V0H12.5H6V3.28985ZM6 8.8103V9.90187L6.29934 9.90059C6.84135 9.89834 9.63179 9.69223 10.875 9.56259C12.6385 9.37877 13.6404 9.15844 13.6404 8.95451C13.6404 8.70575 12.3139 8.42108 9.84868 8.14079C8.04197 7.93535 7.71258 7.90096 6.91228 7.83408C6.48893 7.79872 6.1105 7.75833 6.07127 7.74429C6.01602 7.72449 6 7.96396 6 8.8103ZM6 12.2166V13.2526L6.1568 13.2179C6.40973 13.1619 7.23568 13.0681 8.87939 12.9086C11.4766 12.6567 12.2236 12.5736 12.7442 12.479C13.2613 12.3851 13.5263 12.2902 13.5263 12.199C13.5263 11.964 11.4765 11.6642 7.79605 11.3609C6.9807 11.2937 6.24301 11.2257 6.1568 11.2097L6 11.1806V12.2166ZM6 15.2927V16.3233L6.27083 16.3019C6.41982 16.2902 7.15746 16.2385 7.91009 16.1871C11.3449 15.9527 13.4693 15.6648 13.4693 15.4336C13.4693 15.1886 12.6525 15.052 8.33772 14.5751C7.5336 14.4863 6.41355 14.342 6.18531 14.2979L6 14.2622V15.2927ZM6 18.6359V19.6717L6.1568 19.6508C6.24301 19.6394 6.51886 19.6141 6.76974 19.5947C7.02061 19.5752 7.4568 19.5324 7.73904 19.4996C8.02127 19.4668 8.73969 19.3844 9.33553 19.3165C10.6083 19.1717 11.8222 18.9961 12.4987 18.859C13.3986 18.6767 13.5954 18.4872 13.0606 18.318C12.7521 18.2204 11.2776 18.0135 10.4474 17.9513C10.1808 17.9313 9.66765 17.8887 9.30702 17.8567C8.94638 17.8246 8.19495 17.7714 7.63715 17.7383C7.0794 17.7052 6.48283 17.6606 6.31149 17.6391L6 17.6001V18.6359Z" fill="#111111"/>
</g>
<defs>
<clipPath id="clip0_3714_4190">
<rect width="25" height="26" fill="white"/>
</clipPath>
</defs>
</svg>
