<svg width="25" height="26" viewBox="0 0 25 26" fill="none" xmlns="http://www.w3.org/2000/svg">
<path d="M13.7039 1.67076C13.5824 2.08389 13.3062 2.52928 12.9083 2.98023C12.5074 3.43594 11.9843 3.89535 11.3758 4.33228C10.7643 4.77159 10.0689 5.18551 9.32898 5.546C8.58853 5.90703 7.80669 6.2133 7.02382 6.43679C6.24507 6.65975 5.5429 6.77877 4.94188 6.80443C4.34573 6.82955 3.85033 6.76211 3.47792 6.61347C3.11039 6.46668 2.8616 6.24001 2.75443 5.94353C2.64725 5.65153 2.67694 5.29157 2.86044 4.87315C2.91622 4.74646 2.98407 4.61872 3.06413 4.48938C3.14316 4.36111 3.23389 4.23098 3.33528 4.10112C3.43654 3.97099 3.54744 3.84113 3.66837 3.71047C3.78827 3.58114 3.91767 3.45128 4.05607 3.32274L4.42733 2.98896L4.79229 2.68533L5.13926 2.41846L5.48456 2.16984L5.82613 1.94159L6.15653 1.73529L6.48332 1.5446C6.48332 1.5446 5.81971 2.0659 5.49304 2.49067C5.43316 2.56842 5.377 2.64274 5.32547 2.71495C5.21868 2.86438 5.13219 3.0035 5.07501 3.14051C4.98968 3.34522 4.98171 3.51846 5.04211 3.65784C5.06229 3.70386 5.08992 3.74618 5.12448 3.78453C5.16342 3.82764 5.21136 3.86546 5.26764 3.89826C5.31313 3.92471 5.36415 3.94772 5.42031 3.96729C5.60973 4.03315 5.85685 4.05854 6.15229 4.04002C6.44939 4.02098 6.79302 3.95803 7.1734 3.84589C7.55366 3.73401 7.93352 3.58378 8.29309 3.40869C8.65329 3.23361 8.99165 3.03339 9.29236 2.82207C9.59153 2.61101 9.85201 2.38857 10.0542 2.16826C10.2557 1.94847 10.4005 1.73053 10.4705 1.52767C10.5399 1.32587 10.5289 1.15792 10.4514 1.02674C10.3739 0.896346 10.2297 0.80166 10.0313 0.746647C9.83402 0.691634 9.58998 0.70433 9.30084 0.760929C9.21155 0.77826 9.11746 0.792622 9.01896 0.807657C8.80629 0.840118 8.57307 0.875717 8.32329 0.951095C8.20288 0.987858 8.10868 1.01986 8.01538 1.05636C7.95511 1.08016 7.8951 1.10555 7.82866 1.13571L7.7842 1.15607L7.72663 1.18278C8.41825 0.815678 8.82935 0.641646 9.57199 0.402551C10.0525 0.247563 10.3818 0.157638 10.8238 0.0767051C11.3372 -0.0174518 11.7705 -0.0108397 12.1604 0.022221C12.5535 0.0560752 12.8861 0.140182 13.1449 0.274011C13.4064 0.408899 13.5931 0.593246 13.6912 0.825464C13.7914 1.0598 13.7999 1.3428 13.7039 1.67076Z" fill="black"/>
<path d="M23.1983 19.3593C23.1983 19.3593 23.0298 19.8425 22.877 20.1287C22.7351 20.3929 22.4578 20.7698 22.4578 20.7698L22.3794 20.8777L22.3051 20.9795C22.1345 21.2088 21.8525 21.5532 21.8525 21.5532L21.4732 21.9867C21.0833 22.4138 20.6365 22.8259 20.1457 23.2131C19.6527 23.6019 19.1155 23.965 18.5462 24.2933C17.9759 24.6215 17.3741 24.9132 16.7535 25.1592C16.1341 25.4049 15.4967 25.6041 14.8542 25.7469C14.7276 25.7749 14.6025 25.8008 14.4785 25.8236C14.3545 25.8466 14.2315 25.8678 14.1113 25.8857C13.9903 25.9045 13.8711 25.9201 13.7527 25.9339C13.7014 25.9397 13.6507 25.945 13.6002 25.95C13.5345 25.9564 13.4694 25.9619 13.4043 25.9669L12.7027 25.9984L12.5483 26L11.798 25.9775L11.035 25.9051C11.035 25.9051 10.9047 25.8876 10.8216 25.8754C10.5046 25.8283 10.3261 25.7963 10.0126 25.7281C9.86653 25.6964 9.68418 25.6501 9.52933 25.6094C9.34595 25.5612 9.20112 25.5208 9.20112 25.5208L8.79247 25.3761L8.68105 25.3187C8.96929 25.438 9.34556 25.5498 9.71862 25.6101C10.0949 25.6702 10.4956 25.7043 10.92 25.7104C11.3464 25.7165 11.797 25.6945 12.2663 25.6427C12.7383 25.59 13.2306 25.5075 13.7397 25.3933C14.9071 25.1306 16.0634 24.7247 17.1621 24.2089C18.2615 23.6929 19.2954 23.0719 20.22 22.381C21.1398 21.6939 21.9456 20.943 22.5992 20.1636C22.8247 19.8943 23.0104 19.6494 23.1998 19.3482C23.2087 19.3376 23.1983 19.3593 23.1983 19.3593Z" fill="black"/>
<path d="M16.4737 0.575789L17.3 0.897669L18.1152 1.28461L18.4022 1.43907C18.4584 1.46975 18.5129 1.50175 18.5656 1.53481C18.7263 1.63611 18.8703 1.74931 18.9963 1.87389C19.1647 2.04078 19.3013 2.22724 19.402 2.43459C19.4578 2.54885 19.5026 2.66919 19.5363 2.79535C19.5471 2.83555 19.5568 2.87629 19.5651 2.91781C19.5786 2.9842 19.5891 3.05217 19.5967 3.12146C19.6237 3.37299 19.6105 3.64462 19.5541 3.93608C19.4058 4.70467 18.971 5.53569 18.3051 6.3786C17.6288 7.23554 16.7175 8.09988 15.6374 8.9182C14.5474 9.74365 13.2932 10.5154 11.9482 11.179C10.6024 11.8423 9.17825 12.3901 7.75259 12.7699C6.47779 13.1092 5.32123 13.2827 4.31515 13.3065C3.32423 13.3301 2.48482 13.2089 1.82519 12.9614C1.17674 12.7175 0.704605 12.3531 0.428572 11.8849C0.15845 11.426 0.0782609 10.8685 0.208053 10.2279L0.266139 9.95524L0.501435 9.05017L0.795845 8.17446L1.09925 7.4347L1.3767 6.83087L1.33031 6.95307C1.33437 6.94447 1.33367 6.94608 1.33135 6.95145L1.33031 6.95307L1.31926 6.97819C1.05594 7.58096 1.00261 8.10622 1.13716 8.54051C1.27646 8.98908 1.61521 9.33978 2.12859 9.57597C2.65046 9.81612 3.3516 9.93726 4.2027 9.92192C5.06434 9.90605 6.07582 9.75 7.20065 9.43738C8.33408 9.12211 9.46687 8.68016 10.5385 8.15277C11.6101 7.62565 12.6126 7.01628 13.4889 6.36802C14.3595 5.72506 15.1004 5.04692 15.6586 4.37513C16.2099 3.71232 16.5819 3.05931 16.727 2.45549C16.8025 2.14287 16.813 1.85907 16.7656 1.60543C16.7191 1.35391 16.6151 1.13174 16.4605 0.939722C16.3076 0.749821 16.1049 0.589014 15.8581 0.459151C15.6918 0.371871 15.5061 0.298873 15.3019 0.238835L14.9985 0.154728C15.1299 0.1743 15.2032 0.188582 15.3019 0.214767C15.3019 0.214767 15.404 0.240686 15.5264 0.273482C15.6127 0.296493 15.7091 0.322941 15.7867 0.346216C16.058 0.426355 16.4737 0.575789 16.4737 0.575789Z" fill="black"/>
<path d="M22.0174 4.5153L22.6336 5.31167L23.1932 6.16675L23.4435 6.60315C23.518 6.73883 23.581 6.88139 23.6327 7.0303C23.6847 7.17947 23.7253 7.33525 23.7534 7.49764C23.7825 7.6603 23.7983 7.83037 23.8015 8.00625C23.8052 8.18293 23.7947 8.36595 23.7714 8.55532C23.6502 9.53418 23.179 10.5834 22.4216 11.6424C21.6482 12.7226 20.582 13.8038 19.3004 14.8186C18.004 15.8448 16.4997 16.7927 14.8748 17.5928C13.25 18.3931 11.5221 19.0364 9.78878 19.4553C8.55319 19.7536 7.40652 19.9166 6.37255 19.9552C5.35014 19.9935 4.44198 19.9113 3.66387 19.7216C2.89797 19.5346 2.26121 19.2456 1.76826 18.8663C1.28379 18.4939 0.93836 18.0358 0.744186 17.5047L0.548598 16.925L0.280917 15.9337L0.0936818 14.9347L0.0550012 14.653L0 14.0902C0.07145 14.6269 0.288884 15.0958 0.649604 15.487C1.05415 15.9249 1.63384 16.2632 2.3707 16.4854C3.12016 16.7121 4.02986 16.8176 5.07719 16.7861C6.13866 16.7533 7.33622 16.5796 8.64211 16.2489C10.2765 15.835 11.9071 15.219 13.4447 14.4629C14.9818 13.7067 16.4099 12.8194 17.6448 11.864C18.8672 10.9196 19.8896 9.91716 20.639 8.92031C21.3742 7.94251 21.8419 6.9774 21.9799 6.08132C22.0186 5.82953 22.0301 5.59044 22.0159 5.3643C22.0087 5.23814 21.993 5.11569 21.9696 4.9972C21.9514 4.90542 21.9286 4.81602 21.9016 4.72874C21.8397 4.53091 21.7556 4.34524 21.6488 4.17306C21.5832 4.067 21.5086 3.96888 21.4277 3.87234L21.9397 4.42326L22.0174 4.5153Z" fill="black"/>
<path d="M24.9381 11.9516C25.0132 12.7511 25.0368 13.2182 24.9119 14.0119C24.7197 15.2383 24.4088 15.9607 23.7409 16.9591C23.0595 17.9763 22.1149 18.9829 20.9746 19.9176C19.8225 20.8613 18.481 21.7238 17.0272 22.4403C15.5723 23.1573 14.0198 23.7212 12.4535 24.0716C11.6419 24.2531 10.8689 24.3673 10.1449 24.4197C9.42614 24.471 8.75559 24.4615 8.14029 24.3943C7.53168 24.3285 6.9773 24.2071 6.48589 24.0354C5.99808 23.8659 5.57272 23.6471 5.21315 23.3842L4.45805 22.7799L3.8281 22.1951C3.8281 22.1951 3.39902 21.7643 3.1492 21.4646C2.9707 21.2506 2.71227 20.897 2.71227 20.897C3.00424 21.2395 3.36124 21.5352 3.81024 21.7793C4.33635 22.0639 4.96424 22.2766 5.68516 22.4078C6.41598 22.5408 7.23984 22.5892 8.14505 22.5445C9.05861 22.4993 10.0535 22.3583 11.112 22.1131C12.8122 21.7201 14.5023 21.1001 16.089 20.3188C17.6751 19.5381 19.1405 18.605 20.3996 17.588C21.645 16.5833 22.6768 15.5065 23.4212 14.4245C24.151 13.3645 24.5989 12.3078 24.7028 11.316C24.7139 11.2089 24.7207 11.1036 24.7239 11.0005C24.7272 10.9057 24.715 10.8032 24.7045 10.7143L24.7018 10.6918C24.6907 10.5871 24.8289 11.143 24.8289 11.143C24.8289 11.143 24.9087 11.6345 24.9381 11.9516Z" fill="black"/>
</svg>
