<svg width="25" height="26" viewBox="0 0 25 26" fill="none" xmlns="http://www.w3.org/2000/svg">
<g clip-path="url(#clip0_3721_3221)">
<path d="M4.53786 14.8486V7.47113C3.84187 7.63817 3.20156 7.88873 2.61693 8.2228V9.86534H0V11.7863H2.58909V14.8208C2.58909 16.7974 4.17595 18.3843 6.12472 18.4399V16.4912C5.23385 16.4912 4.53786 15.7395 4.53786 14.8486Z" fill="#111111" stroke="#111111" stroke-width="0.579065" stroke-miterlimit="10"/>
<path d="M23.246 10.3665L20.128 12.009C19.5712 12.2874 19.3763 12.9834 19.6825 13.5402C19.9888 14.0692 20.6291 14.264 21.1859 13.9856L22.8006 13.1505C22.7727 14.1805 22.2716 15.1271 21.4364 15.7674C20.824 16.2407 20.0723 16.4634 19.2928 16.4355C17.511 16.3799 16.0355 14.9044 15.9799 13.1226C15.9242 11.1738 17.4554 9.61482 19.3763 9.61482C20.0166 9.61482 20.6291 9.8097 21.1302 10.1159C21.4643 10.3108 21.8819 10.3386 22.2159 10.1438C22.9676 9.75402 23.0233 8.66827 22.2716 8.22284C21.2972 7.58252 20.1001 7.27629 18.8473 7.38765C16.1191 7.66604 13.9476 9.86538 13.7527 12.5937C13.5021 15.8787 16.1191 18.6349 19.3763 18.6349C20.6012 18.6349 21.7705 18.2451 22.7449 17.5213C24.1647 16.4634 24.9999 14.7652 24.9999 13.0113C24.9999 12.2317 24.8329 11.5079 24.5545 10.8119C24.3596 10.3108 23.7471 10.0881 23.246 10.3665Z" fill="#111111"/>
<path d="M13.9198 15.7952C13.8362 15.656 13.6414 15.6004 13.5022 15.7117L13.4743 15.7395C12.8619 16.2128 12.1102 16.4355 11.3307 16.4077C9.54893 16.3799 8.07343 14.9044 8.04559 13.0948C7.98991 11.1738 9.52109 9.61483 11.442 9.61483C12.2215 9.61483 12.9454 9.86539 13.5022 10.3108C13.6414 10.4222 13.8362 10.3665 13.9198 10.2273C14.1703 9.75403 14.4765 9.30859 14.8385 8.91884C14.9498 8.77964 14.922 8.58476 14.8106 8.50124C13.7806 7.72173 12.4721 7.30414 11.0801 7.38766C8.29615 7.58254 6.04114 9.80971 5.81842 12.5937C5.5957 15.8787 8.18479 18.6349 11.442 18.6349C12.667 18.6349 13.8362 18.2451 14.8106 17.5213C14.9498 17.4378 14.9498 17.2429 14.8385 17.1315C14.4765 16.7418 14.1703 16.2963 13.9198 15.7952Z" fill="#111111"/>
</g>
<defs>
<clipPath id="clip0_3721_3221">
<rect width="25" height="26" fill="white"/>
</clipPath>
</defs>
</svg>
