<svg width="25" height="26" viewBox="0 0 25 26" fill="none" xmlns="http://www.w3.org/2000/svg">
<g clip-path="url(#clip0_3714_4184)">
<path d="M10.0895 12.162C10.0895 12.162 12.4553 11.9863 12.4553 9.21201C12.4553 6.43751 10.5198 5.0835 8.06794 5.0835H0V20.5878H8.06794C8.06794 20.5878 12.9931 20.7434 12.9931 16.0117C12.9931 16.0117 13.2079 12.162 10.0895 12.162ZM7.48722 7.83922H8.06794C8.06794 7.83922 9.16462 7.83922 9.16462 9.45237C9.16462 11.0653 8.51966 11.2992 7.7881 11.2992H3.55484V7.83922H7.48722ZM7.83996 17.8322H3.55484V13.6889H8.06794C8.06794 13.6889 9.70248 13.6674 9.70248 15.8181C9.70248 17.6316 8.48164 17.8185 7.83996 17.8322ZM19.5617 9.02826C13.5992 9.02826 13.6045 14.9855 13.6045 14.9855C13.6045 14.9855 13.1954 20.9121 19.5617 20.9121C19.5617 20.9121 24.8669 21.2152 24.8669 16.7893H22.1385C22.1385 16.7893 22.2295 18.456 19.6527 18.456C19.6527 18.456 16.9239 18.6389 16.9239 15.7586H24.9579C24.9579 15.7586 25.837 9.02826 19.5617 9.02826ZM16.8939 13.6889C16.8939 13.6889 17.2271 11.2991 19.6223 11.2991C22.0171 11.2991 21.9871 13.6889 21.9871 13.6889H16.8939ZM22.6227 7.90614H16.226V5.9969H22.6227V7.90614Z" fill="#111111"/>
</g>
<defs>
<clipPath id="clip0_3714_4184">
<rect width="25" height="26" fill="white"/>
</clipPath>
</defs>
</svg>
